<?xml version="1.0" encoding="utf-8"?>
<!-- Generator: Adobe Illustrator 21.0.2, SVG Export Plug-In . SVG Version: 6.00 Build 0)  -->
<svg version="1.1" id="Layer_1" xmlns="http://www.w3.org/2000/svg" xmlns:xlink="http://www.w3.org/1999/xlink" x="0px" y="0px"
	 width="14.8px" height="18.1px" viewBox="0 0 14.8 18.1" style="enable-background:new 0 0 14.8 18.1;" xml:space="preserve">
<style type="text/css">
	.st0{fill:#FFFFFF;}
	.st1{fill:#FFFFFF;stroke:#FFFFFF;stroke-width:0.1;}
</style>
<title>icon_shopping_bag</title>
<desc>Created with Sketch.</desc>
<g id="Page-1">
	<g id="RR:-Главная-страница" transform="translate(-1292.000000, -10.000000)">
		<g id="subheader">
			<g id="icon_shopping_bag" transform="translate(1280.000000, 0.000000)">
				<g id="Shape" transform="translate(12.000000, 11.000000)">
					<g transform="translate(0.800000, 0.000000)">
						<path class="st0" d="M1.1,2.6c-0.8,0-1.5,0.7-1.5,1.5V15c0,0.8,0.7,1.5,1.5,1.5h10.9c0.8,0,1.5-0.7,1.5-1.5V4.1
							c0-0.8-0.7-1.5-1.5-1.5H1.1z M12.5,15c0,0.3-0.2,0.5-0.5,0.5H1.1c-0.3,0-0.5-0.2-0.5-0.5V4.1c0-0.3,0.2-0.5,0.5-0.5H12
							c0.3,0,0.5,0.2,0.5,0.5L12.5,15L12.5,15z"/>
						<path class="st1" d="M10.4,3.5H2.9V3.1c0-2.2,2-3.5,3.8-3.5s3.8,1.3,3.8,3.5L10.4,3.5L10.4,3.5z M4,2.6h5.4
							c-0.3-1.2-1.5-2-2.7-2C5.5,0.6,4.2,1.4,4,2.6z"/>
					</g>
				</g>
			</g>
		</g>
	</g>
</g>
</svg>
