<?xml version="1.0" encoding="utf-8"?>
<!-- Generator: Adobe Illustrator 21.0.2, SVG Export Plug-In . SVG Version: 6.00 Build 0)  -->
<svg version="1.1" id="Layer_1" xmlns="http://www.w3.org/2000/svg" xmlns:xlink="http://www.w3.org/1999/xlink" x="0px" y="0px"
	 width="15.9px" height="21.2px" viewBox="0 0 15.9 21.2" style="enable-background:new 0 0 15.9 21.2;" xml:space="preserve">
<style type="text/css">
	.st0{fill:none;stroke:#1A171C;stroke-width:1.2;stroke-linecap:round;stroke-linejoin:round;}
</style>
<title>icon_store_finder</title>
<desc>Created with Sketch.</desc>
<g id="Page-1">
	<g id="Карточка-товара" transform="translate(-1122.000000, -1552.000000)">
		<g id="icon_store_finder" transform="translate(1123.000000, 1553.000000)">
			<path id="Stroke-1" class="st0" d="M14,6.7c0-3.8-3.2-6.8-7.1-6.8s-7.1,3-7.1,6.8c0,1.3,0.4,2.5,1,3.5l6.1,9l6.1-9
				C13.7,9.2,14,8,14,6.7z"/>
			<path id="Stroke-3" class="st0" d="M10,6.7c0,1.6-1.4,2.9-3,2.9c-1.7,0-3-1.3-3-2.9s1.4-2.9,3-2.9C8.6,3.8,10,5.1,10,6.7z"/>
		</g>
	</g>
</g>
</svg>
