<svg xmlns="http://www.w3.org/2000/svg" width="25" height="23" viewBox="0 0 25 23">
    <path fill="#FFF" fill-rule="evenodd" d="M10.737 21.95c-.392-.205-.5-.34-.753-.634-.102-.119-.256-.227-.317-.337-.048-.084-.037-.204-.1-.277-.066-.08-.248-.141-.376-.159-.588-.08-1.313.087-1.803.178.136.83.321 1.608.872 2.021.245-.051.266.142.416.179.135.032.333 0 .476 0 .388 0 .639-.004.891-.1.478-.18.954-.492 1.347-.614-.274-.022-.424-.137-.653-.257zm-5.765-.357c.071.152.157.355.297.495.189.19.747.49 1.01.575.191.063.45.09.674.139.44.097.793.133 1.149.02-.026-.127-.185-.12-.258-.199-.322-.536-.698-1.018-.594-1.98-.457-.277-.851-.616-1.407-.793-.182.689-.315 1.428-.871 1.743zm8.895-1.505c-.982.122-1.802-.087-2.239-.575-.632.325-1.402.513-1.803 1.07.151.188.236.478.416.673.088.096.254.156.377.258.114.095.187.225.297.277.924.44 1.667-.138 2.219-.515.229-.43.697-.729.772-1.248-.005.028-.032.034-.04.06zm-9.846-.06c-.214-.005-.472-.207-.654-.178-.058.009-.26.2-.317.277-.331.438-.506 1.012-.515 1.724.245.13.495.258.892.198.337-.051.646-.216.891-.357.238-.136.51-.273.673-.436.19-.19.233-.358.337-.614.05-.12.142-.237.179-.356.087-.284.08-.58.079-.931-.001-.012-.003-.024-.02-.02-.247.326-1.028.706-1.545.693zm10.737-2.16c-.086.004-.165.068-.258.08-.578.08-1.275-.025-1.802-.08-.334.427-.588.932-.872 1.407.215.188.575.23.773.436.325.002.53.158.812.159.184 0 .616-.082.753-.159.258-.144.34-.426.515-.693.093-.142.249-.267.297-.377.104-.236.091-.519.238-.693-.173.044-.296-.084-.456-.08zm-11.965.338c-.077.11-.123.286-.198.435-.077.153-.197.303-.218.436-.068.423.268.656.336 1.05.088-.176.399-.345.456-.554.044-.162-.018-.354 0-.515.074-.643.38-1.137.594-1.605-.004-.015-.016-.023-.04-.02-.267.19-.688.428-.93.773zm1.09 1.505c.297.054.58-.045.772-.099.41-.116.677-.279.95-.515.173-.149.45-.413.516-.555.04-.087.036-.216.079-.316.05-.12.158-.2.178-.298.067-.32-.034-.638-.02-.93-.391.225-.937.6-1.485.594-.24-.004-.468-.13-.753-.08-.421.49-.533 1.29-.713 2.021.174-.003.305.148.475.178zm9.845-4.2c.034.306.058.617.158.872.039.098.145.19.198.297.064.127.08.274.14.377.084.146.415.414.573.495.086.044.387.155.436.158.132.01.374-.082.555-.118.77-.155 1.542-.339 1.942-.773-.531-.081-.902-.397-1.248-.674-.3-.239-.51-.454-.634-.792-.774-.014-1.525-.006-2.12.158zm-11.51-.04c-.448.238-.741.53-.812 1.051-.055.403.074.604.139.931.126.64.308 1.225.673 1.545.022-.255.128-.427.159-.673.3-.197.436-.609.732-.813.2-.137.442-.214.674-.336-.044-.683.101-1.554-.099-2.08-.706-.072-1.05.156-1.466.376zm8.994.318c-.002.17.09.4.139.594.195.778.69 1.029 1.466 1.189.385.08.76.195 1.267.138.128-.014.317-.052.357-.138-.02-.119-.177-.1-.277-.139-.242-.194-.289-.399-.416-.753-.132-.365-.296-.732-.258-1.228-.54-.365-1.064-.745-1.921-.792-.108.23-.353.836-.357 1.129zm-6.32-.614c-.473.366-.844 1.185-.614 2 .128.066.24.158.357.179.233.042.384-.06.535-.08.083-.01.169.015.238 0 .244-.051.854-.453.99-.634.054-.072.073-.2.139-.297.095-.14.24-.234.277-.316.205-.446.252-1.112.06-1.625-.013.001-.024.003-.02.02-.465.44-.96.85-1.962.753zm3.19-.872c-.365-.008-.697.016-.951.119.157.325.082.882.1 1.347-.095.17-.23.3-.259.535.214.093.444.312.694.357.744.133 1.372-.208 1.823-.416-.206-.469-.71-.638-.773-1.248-.324-.12-.406-.48-.634-.694zm10.44.278c-.182-.195-.463-.29-.693-.436-.29.1-.642.309-.991.416-.265.25-.527.503-.852.693.278.3.523.745.872.99.088.063.234.098.357.159.251.127.52.264.95.178.079-.015.176-.096.278-.139.108-.044.236-.068.317-.118.1-.062.188-.206.297-.297.212-.177.472-.32.614-.516.22-.303.333-.67.495-.95-.441.144-1.174.128-1.644.02zm1.624-1.15a3.367 3.367 0 0 1-2.159.555c.188-.01.33.177.515.258.134.058.349.071.535.118.186.047.373.137.515.139.297.004.535-.158.793-.257.087-.296.468-.298.515-.634-.204.076-.597-.253-.714-.179zm-8.478.912c.446.185 1.04.26 1.466.495.253.14.266.337.673.277.37-.054.897-.331 1.15-.515.085-.062.24-.238.257-.317.05-.224-.045-.272-.139-.396-.253-.333-.472-.555-.891-.713-.12-.045-.258-.036-.377-.08-.236-.085-.35-.214-.693-.178-.796.085-1.361.643-1.724 1.07.09.121.171.252.278.357zm-1.664-1.506c-.087.11-.248.152-.357.258-.307.295-.65.918-.693 1.426-.03.349.071.441.178.654.162.322.24.437.475.673.414.414 1.024.771 1.546.99-.032-.199-.153-.384-.179-.613-.055-.495.096-1.025.159-1.446.063-.118.26-.2.257-.317-.398-.606-.73-1.278-1.386-1.625zM2.97 12.58c-.099.02-.18.122-.317.158-.139.036-.266.002-.357.08-.039.032-.068.15-.119.217-.117.155-.339.327-.416.515-.045.111-.031.271-.079.416-.045.137-.157.242-.178.357-.073.408.054.88 0 1.367.508-.424 1.197-.837 2.179-.852.206-.283.391-.586.614-.852.076-.392.136-.802.337-1.07-.469-.098-1.086-.451-1.664-.336zm14.343.257c-.321-.122-.59-.483-.872-.614-.173-.08-.557-.154-.812-.178-.303-.03-.442.042-.634.099-.509.15-.869.424-1.17.713.285.02.466.143.754.158.419.327.712.78 1.01 1.229.388-.045.7.061 1.01 0 .355-.07.708-.444 1.05-.516-.072-.337-.27-.549-.336-.89zm-10.599-1.13c-.518.44-.937.979-1.664 1.21-.36.487-.19 1.19-.159 1.92.205-.019.302.07.456.1a.89.89 0 0 1 .515-.1c.283-.178.534-.39.872-.514.088-.222.33-.363.436-.634.23-.586.167-1.357-.02-1.981h-.436zm12.916 1.764c.104-.148.322-.155.357-.337.026-.134-.109-.452-.158-.554-.136-.28-.362-.393-.615-.595-.103-.083-.21-.26-.297-.297-.093-.04-.259-.014-.396-.06-.149-.048-.256-.16-.357-.178-.793-.142-1.474.217-1.921.535.388-.02.558.17.773.337.426.331.777.677.871 1.307.565.19 1.218-.062 1.743-.158zM9.37 11.728c-.147-.065-.43-.313-.555-.278-.341.095-.702.22-1.15.258.02.36-.027.647 0 .931.03.294.174.49.258.733.037.107.031.235.08.337.103.218.39.481.535.673.046.062.105.172.178.159.003-.272.01-.48.08-.654.143-.363.622-.935.89-1.149.097-.077.207-.088.238-.178.067-.193-.05-.407 0-.594-.173-.094-.362-.153-.554-.238zm2.02-.377c-.255-.05-.487-.322-.772-.257-.097.022-.337.229-.357.297-.07.241.099.587.08.852-.01.123-.071.2-.08.337.372.222.572.616.911.871.319-.093.544-.263.773-.436.115-.086.26-.176.337-.257.135-.146.215-.396.337-.614.2-.36.4-.635.515-1.03-.219.206-1.174.35-1.744.237zm9.965 1.942c.206-.023.639-.105.812-.179.226-.094.309-.276.258-.614-.067-.442-.386-.622-.674-.852-.132-.105-.217-.254-.277-.297-.168-.117-.598-.306-.793-.336-.567-.089-1.038.136-1.565.158-.108.11-.266.17-.356.297.21.031.374.183.554.278.177.092.37.19.496.336.256.303.39.71.535 1.13.277.063.654.118 1.01.079zm3.487-1.427c-.197-.33-.6-.665-.932-.911-.1-.075-.213-.185-.297-.218-.108-.042-.263-.03-.396-.06-.125-.027-.252-.087-.357-.098-.574-.064-1.124.273-1.584.455h.178c.091.192.331.202.495.317.198.14.504.483.634.733.115.22.183.447.159.773.767.144 1.719-.047 2.258-.376-.05-.208-.18-.336-.158-.615zM5.566 10.56c-.069-.033-.203-.019-.317-.06-.134-.048-.253-.16-.357-.178a1.069 1.069 0 0 0-.792.159c-.346.216-1.004.75-1.228 1.07-.212.3-.285.682-.495.95.398-.053.732-.247 1.188-.178.114.017.27.093.416.139.311.097.566.15.753.297l1.03-.515c.225-.277.466-.539.694-.812-.312-.18-.578-.723-.892-.872zm8.102.158c-.055.088-.17.149-.217.238-.08.15-.25.688-.238.832.026.323.392.595.535.793.3-.559 1.083-.634 1.723-.852.044-.533-.14-.836-.238-1.229-.34-.338-.693-.667-1.169-.871-.122.308-.195.771-.396 1.09zm-11.212 1.01c.146-.229.595-.601.614-.89.027-.427-.718-.935-.793-1.388a2.9 2.9 0 0 0-.812.456c-.231.19-.296.391-.436.674-.074.15-.195.33-.217.455-.06.332.052.53.138.733.13.31.241.42.396.674.14.226.215.486.436.574.426-.222.427-.9.674-1.287zm6.082-1.505c-.033-.095-.027-.23-.06-.297-.118-.249-.452-.384-.535-.654-.17-.103-.316-.134-.555-.178-.08-.015-.136-.076-.198-.08-.175-.01-.413.087-.634.14-.21.05-.458.059-.633.118-.492.165-.91.59-1.209.812.762-.016 1.024.469 1.565.674.122.235.32.393.456.614.812.04 1.505-.04 2.06-.257.063-.438-.154-.592-.257-.892zm1.644-1.13c-.632-.206-1.576-.225-2.259-.058.2.064.385.263.515.435.127.168.24.398.337.634.138.338.308.587.278 1.01.122.136.276.24.436.337.325-.261.744-.43 1.05-.713.006-.515.496-.878.257-1.387-.23-.004-.391-.184-.614-.257zm3.09-.673c-.18.123-.651.38-.852.416-.245.045-.484-.032-.772 0-.333.599-.62 1.243-.773 2.02.211.048.51.22.852.259.352.038.867.043 1.13-.08.16-.075.201-.26.376-.257-.007-.145.17-.202.257-.317.334-.443.337-1.411.337-2.259 0-.133.05-.335-.08-.316-.133.157-.259.388-.475.534zm5.825.951c-.145.44-.077 1.111 0 1.565.25-.219.841-.095 1.149-.257.137.153.518.063.693.178.302-.3.494-.746.436-1.347-.03-.3-.158-.88-.258-1.11-.153-.354-.471-.625-.634-.851-.211.858-.601 1.538-1.386 1.822zM7.309 6.676c-.773.369-1.3 1.09-1.188 2.278.538-.347 1.744-.025 2.317-.337a2.18 2.18 0 0 0 .456-.812c-.625-.28-1.24-.569-1.585-1.129zm2.239-.99c-.307.354-.5.667-.416 1.366.026.216.102.549.178.773.162.475.563.73.97.97.22.13.646.35.833.317.071-.012.281-.205.297-.316.02-.138-.1-.38-.139-.555-.042-.192-.1-.392-.118-.574-.025-.237.05-.64 0-.892-.05-.251-.367-.6-.555-.733-.306-.215-.676-.31-1.01-.396 0-.047-.054.007-.04.04zm8.875.455c-.108.451-.309 1.004-.535 1.268.222.702.658 1.192 1.07 1.703.507-.196 1.024-.62 1.208-1.109.118-.313.186-.592.179-.99-.083-.189-.24-.325-.357-.515-.148-.242-.244-.554-.456-.714-.084-.063-.219-.07-.317-.138-.293-.206-.446-.59-.891-.614.132.369.203.678.1 1.11zm-6.954.396c-.048.822.048 1.498.258 2.06.291-.008.584-.07.832-.178.223-.097.497-.212.674-.336.153-.108.242-.322.356-.476.073-.099.138-.113.159-.198.038-.161 0-.4 0-.575 0-.2.033-.426 0-.594-.032-.158-.203-.382-.317-.614-.194-.394-.297-.827-.575-1.03-.1 1.008-.74 1.48-1.387 1.941zM2.872 4.695c-.145-.059-.294-.173-.436-.198-.54-.097-1.225 0-1.486.198-.11.084-.134.202-.218.337-.069.11-.206.22-.277.337-.153.25-.15.447-.258.732-.058.156-.161.265-.178.357-.06.335.046.7 0 .99.265-.119.69-.495 1.01-.594.354-.108.757-.067 1.248-.079.23-.266.4-.59.634-.852.096-.34.204-.668.337-.97-.06-.127-.21-.19-.376-.258zm12.797-.297c.21.368.172.856.317 1.327-.034.11-.089.202-.099.337.346.163.553.544.892.733.284.158.628.175.95.337.273-.397.588-1.178.436-1.942-.036-.185-.246-.56-.435-.693-.126-.088-.339-.169-.515-.258-.167-.084-.365-.207-.516-.257-.43-.145-1.054-.157-1.485-.178.06.253.324.364.455.594zm-7.825-.575c-.001-.012-.003-.023-.02-.02-.141.099-.146.224-.237.357-.063.091-.156.138-.199.218-.28.531-.155 1.377 0 1.961.373.578.909.994 1.645 1.209-.33-.588-.078-1.846.376-2.18-.321-.715-.824-1.249-1.565-1.545zm7.726 1.644c-.013-.115.019-.242 0-.336-.019-.097-.13-.22-.178-.357-.04-.117-.04-.247-.08-.336-.101-.23-.346-.37-.356-.555-.466-.374-1.585-.258-2.179-.08.036.11.105.186.08.357.228.287.54.55.713.911.138.29.171.633.336.931.606.086 1.034.044 1.664 0 .141-.17.025-.305 0-.535zM2.178 2.971c-.102.086-.26.155-.336.238-.316.348-.504.844-.773 1.229.225-.006.246-.147.396-.179.48-.1.929.045 1.228.139.165.051.356.075.456.119.106.046.183.167.278.178.114.013.253-.103.356-.08.197-.125.389-.35.614-.455.124-.058.316-.042.317-.238-.112-.252-.468-.38-.614-.653-.033-.062-.024-.153-.06-.218-.048-.09-.152-.144-.197-.238-.066-.136-.064-.296-.06-.476-.923-.165-1.195.293-1.605.634zm8.519-.099c.004.138-.069.336-.099.515-.06.351-.09.541-.198.773-.08.171-.105.31-.218.377.338.646.586 1.382 1.228 1.723.325-.134.438-.305.634-.575.19-.261.519-.698.575-1.01.045-.254-.04-.405-.1-.555-.141-.357-.237-.613-.495-.91-.16-.186-.384-.438-.535-.536-.316-.205-.735-.23-.97-.515-.021.249.17.448.178.713zm-3.289.12c-.057-.1-.097-.243-.158-.318-.055-.067-.2-.136-.317-.238-.213-.182-.39-.344-.654-.435-.143-.05-.385.336-.455.475-.03.058-.03.134-.06.198-.06.128-.163.208-.178.278-.066.293-.032.919 0 1.188.064.538.439.838.594 1.17.313.181.586.404.892.593-.231-.92.078-1.854.594-2.278-.03-.296-.144-.436-.258-.634zm.436-1.288c.062.116.12.316.178.495.117.353.204.687.159 1.188.106.142.256.262.416.377.146.105.295.268.456.337.325.14.716.08.97.337.35-.35.298-1.103.436-1.665-.076-.333-.215-.603-.356-.871-.236-.073-.401-.275-.614-.357-.107-.04-.255-.033-.377-.08-.232-.087-.414-.23-.654-.257-.282-.031-.696.023-1.05 0 .104.199.328.29.436.496zm-1.486-.04c.393.24.808.557 1.07.911.176.238.28.544.515.733.108-.535-.156-.899-.277-1.248-.03-.088-.018-.21-.06-.297-.085-.18-.345-.254-.356-.475-.379-.064-.551-.334-1.07-.258.053.218.198.343.178.634zM4.694 0c.75.286 1.037 1.037 1.407 1.704-.181.313-.556.564-.693 1.01-.105.34-.066.734-.08 1.208A2.533 2.533 0 0 1 4.18 2.773c-.055-.112-.14-.228-.158-.317-.063-.315-.04-.813 0-1.168.01-.091.066-.189.079-.297.011-.094-.018-.202 0-.278.08-.349.517-.337.594-.713zM0 9.25v-.852c.088-.07.085-.232.08-.396.478-.552 1.135-.925 2.198-.892.128.548.123 1.53 0 2.08-.15-.02-.229.1-.337.178-.11.081-.25.105-.356.179-.45.316-.76.884-.97 1.406C.216 10.578.168 9.853 0 9.25z"/>
</svg>
