<?xml version="1.0" encoding="utf-8"?>
<!-- Generator: Adobe Illustrator 21.0.2, SVG Export Plug-In . SVG Version: 6.00 Build 0)  -->
<svg version="1.1" id="Layer_1" xmlns="http://www.w3.org/2000/svg" xmlns:xlink="http://www.w3.org/1999/xlink" x="0px" y="0px"
	 viewBox="0 0 40 40" style="enable-background:new 0 0 40 40;" xml:space="preserve">
<style type="text/css">
	.st0{fill:#FFFFFF;}
	.st1{fill:none;stroke:#FFFFFF;stroke-width:0.1;stroke-linecap:round;stroke-linejoin:round;}
	.st2{fill:#1A171C;fill-opacity:0;}
</style>
<title>icon_favourite</title>
<desc>Created with Sketch.</desc>
<g id="Page-1">
	<g id="RR:-Главная-страница" transform="translate(-1245.000000, -11.000000)">
		<g id="subheader">
			<g id="icon_favourite" transform="translate(1235.000000, 0.000000)">
				<g id="Shape">
					<g>
						<path id="path-1" class="st0" d="M25.8,23c-1.2,0-2.4,0.5-3.4,1.4c-1.9,1.9-1.9,5,0,6.9l7.5,7.6c0.1,0.1,0.2,0.1,0.3,0.1
							s0.3-0.1,0.3-0.1c2.5-2.5,5-5,7.5-7.6c1.9-1.9,1.9-5,0-6.9s-4.9-1.9-6.8,0l-1,1l-1-1.1C28.2,23.5,27,23,25.8,23L25.8,23z
							 M25.8,24c1,0,1.9,0.4,2.7,1.1l1.4,1.4c0.1,0.1,0.2,0.1,0.3,0.1c0.1,0,0.3-0.1,0.3-0.1l1.4-1.4c1.5-1.5,3.9-1.5,5.4,0
							c1.5,1.5,1.5,4,0,5.5c-2.4,2.4-4.7,4.8-7.1,7.2l-7.1-7.2c-1.5-1.5-1.5-4,0-5.5C23.8,24.3,24.8,24,25.8,24L25.8,24z"/>
					</g>
					<path class="st1" d="M25.8,23c-1.3,0-2.5,0.5-3.4,1.4c-1.9,1.9-1.9,5,0,6.9l7.5,7.6c0.1,0.1,0.2,0.2,0.4,0.2s0.3-0.1,0.4-0.2
						c1-1,1.9-1.9,3.7-3.8c0,0,0,0,0,0c1.9-1.9,2.7-2.7,3.7-3.8c1.9-1.9,1.9-5,0-6.9c-1.9-1.9-5-1.9-6.8,0l-1,1l-1-1.1
						C28.3,23.5,27.1,23,25.8,23L25.8,23z M25.8,24c1,0,1.9,0.4,2.7,1.1l1.4,1.4c0.1,0.1,0.2,0.2,0.4,0.2c0.1,0,0.3-0.1,0.4-0.2
						l1.4-1.4c1.5-1.5,3.8-1.5,5.3,0c1.5,1.5,1.5,3.9,0,5.4c-1.7,1.7-1.7,1.7-3.4,3.4c-0.1,0.1-0.1,0.1-0.2,0.2
						c-1.8,1.8-1.8,1.8-3.6,3.6l-7-7.2c-1.5-1.5-1.5-3.9,0-5.4C23.8,24.4,24.8,24,25.8,24L25.8,24z"/>
				</g>
				<rect id="bg" x="10" y="11" class="st2" width="40" height="40"/>
			</g>
		</g>
	</g>
</g>
</svg>
