<?xml version="1.0" encoding="utf-8"?>
<!-- Generator: Adobe Illustrator 21.0.2, SVG Export Plug-In . SVG Version: 6.00 Build 0)  -->
<svg version="1.1" id="Layer_1" xmlns="http://www.w3.org/2000/svg" xmlns:xlink="http://www.w3.org/1999/xlink" x="0px" y="0px"
	 viewBox="0 0 40 40" style="enable-background:new 0 0 40 40;" xml:space="preserve">
<style type="text/css">
	.st0{fill:#1A171C;fill-opacity:0;}
	.st1{fill:#FFFFFF;stroke:#FFFFFF;stroke-width:0.1;}
</style>
<title>icon_profile</title>
<desc>Created with Sketch.</desc>
<g id="Page-1">
	<g id="RR:-Главная-страница" transform="translate(-1202.000000, -11.000000)">
		<g id="subheader">
			<g id="icon_profile" transform="translate(1190.000000, 0.000000)">
				<rect id="Rectangle-Copy-8" x="12" y="11" class="st0" width="40" height="40"/>
				<g transform="translate(12.000000, 11.000000)">
					<path id="Stroke-3" class="st1" d="M13.4,28.4c0-3.6,2.9-6.4,6.4-6.4c3.5,0,6.4,2.9,6.4,6.4c0,0.3,0.3,0.6,0.6,0.6
						c0.3,0,0.6-0.3,0.6-0.6c0-4.2-3.4-7.6-7.5-7.6c-4.2,0-7.5,3.4-7.5,7.6c0,0.3,0.3,0.6,0.6,0.6C13.1,29,13.4,28.7,13.4,28.4z"/>
					<path id="Oval-Copy" class="st1" d="M19.8,20c-2.4,0-4.4-2-4.4-4.4s2-4.4,4.4-4.4c2.4,0,4.4,2,4.4,4.4S22.2,20,19.8,20z
						 M19.8,18.8c1.8,0,3.2-1.4,3.2-3.2s-1.4-3.2-3.2-3.2c-1.8,0-3.2,1.4-3.2,3.2S18,18.8,19.8,18.8z"/>
				</g>
			</g>
		</g>
	</g>
</g>
</svg>
