<?xml version="1.0" encoding="utf-8"?>
<!-- Generator: Adobe Illustrator 21.0.2, SVG Export Plug-In . SVG Version: 6.00 Build 0)  -->
<svg version="1.1" id="Layer_1" xmlns="http://www.w3.org/2000/svg" xmlns:xlink="http://www.w3.org/1999/xlink" x="0px" y="0px"
	 viewBox="0 0 40 40" style="enable-background:new 0 0 40 40;" xml:space="preserve">
<style type="text/css">
	.st0{fill:#FFFFFF;}
	.st1{fill:#1A171C;fill-opacity:0;}
</style>
<g id="Page-1">
	<g id="RR:-Главная-страница" transform="translate(-51.000000, -11.000000)">
		<g id="subheader">
			<g id="icon_search" transform="translate(40.000000, 0.000000)">
				<g transform="translate(11.000000, 11.000000)">
					<path id="Shape" class="st0" d="M18.3,25.2c-3.8,0-6.8-3.1-6.8-6.8s3.1-6.8,6.8-6.8s6.8,3.1,6.8,6.8S22.1,25.2,18.3,25.2z
						 M18.3,12.8c-3.1,0-5.5,2.5-5.5,5.5s2.5,5.5,5.5,5.5s5.5-2.5,5.5-5.5S21.4,12.8,18.3,12.8z"/>
					<path id="Rectangle-path" class="st0" d="M22.8,22.8L22.8,22.8c0.3-0.3,0.7-0.3,0.9,0l4.1,4.1c0.3,0.3,0.3,0.7,0,0.9l0,0
						c-0.3,0.3-0.7,0.3-0.9,0l-4.1-4.1C22.6,23.5,22.6,23.1,22.8,22.8z"/>
				</g>
				<rect id="Rectangle-Copy-9" x="11" y="11" class="st1" width="40" height="40"/>
			</g>
		</g>
	</g>
</g>
</svg>
