<?xml version="1.0" encoding="UTF-8" standalone="no"?>
<svg width="119px" height="399px" viewBox="0 0 119 399" version="1.1" xmlns="http://www.w3.org/2000/svg" xmlns:xlink="http://www.w3.org/1999/xlink">
    <!-- Generator: Sketch 43.1 (39012) - http://www.bohemiancoding.com/sketch -->
    <title>icon_man</title>
    <desc>Created with Sketch.</desc>
    <defs></defs>
    <g id="Page-1" stroke="none" stroke-width="1" fill="none" fill-rule="evenodd" opacity="0.300000012">
        <g id="Помощь-–-Таблица-размеров" transform="translate(-1140.000000, -246.000000)" fill="#010201">
            <g id="icon_man" transform="translate(1140.000000, 246.000000)">
                <path d="M37.4069822,36.9511243 C37.8815385,45.3901775 46.6543195,53.5747929 55.2069822,52.6742012 C55.5347929,52.6386982 55.7797633,52.2576331 55.3040237,52.3073373 C47.0022485,53.1830769 38.5478107,44.851716 38.0933728,36.7676923 C38.0815385,36.555858 37.3927811,36.695503 37.4069822,36.9511243" id="Fill-1"></path>
                <path d="M55.3566864,52.639645 C58.5590533,51.4313609 61.6608284,47.8573964 63.6726627,45.195858 C66.3495858,41.6550296 67.3472189,38.6029586 66.4478107,34.2526627 C66.3815385,33.9390533 65.6951479,34.116568 65.7614201,34.4360947 C66.6525444,38.7414201 65.5472189,41.4763314 63.0998817,44.9982249 C61.3424852,47.5295858 58.0418935,51.1153846 55.0549112,52.2420118 C54.6146746,52.4088757 55.0052071,52.7721893 55.3566864,52.639645" id="Fill-3"></path>
                <path d="M66.4934911,35.8913609 C68.3443787,36.4085207 69.5431953,34.9315976 70.3727811,33.4842604 C70.556213,33.1659172 69.860355,33.1895858 69.7230769,33.4274556 C69.1289941,34.4653254 68.2934911,35.8487574 66.8970414,35.4594083 C66.6284024,35.3836686 66.0852071,35.7777515 66.4934911,35.8913609" id="Fill-5"></path>
                <path d="M70.387574,33.399645 C71.3378698,31.7298225 73.3213018,26.4990533 70.5662722,25.3617751 C68.9177515,24.6813018 66.9248521,25.5889941 65.7911243,26.8185799 C65.6349112,26.9878107 66.2976331,26.9085207 66.4159763,26.7807101 C67.7177515,25.3688757 70.2443787,24.7002367 71.0088757,26.9452071 C71.7118343,29.0114793 70.7295858,31.720355 69.7094675,33.5132544 C69.6455621,33.624497 70.2857988,33.5783432 70.387574,33.399645" id="Fill-7"></path>
                <path d="M37.9484024,36.6280473 C34.7981065,35.5830769 30.8963314,24.7144379 36.1294675,24.2884024 C36.5140828,24.2576331 36.6584615,23.7487574 36.1910059,23.7866272 C30.1401183,24.2789349 33.5436686,35.7605917 37.5519527,37.0907692 C37.8454438,37.1878107 38.3602367,36.7653254 37.9484024,36.6280473" id="Fill-9"></path>
                <path d="M68.9713609,25.244497 C70.4802367,21.4776331 70.3973964,17.4302959 70.1938462,13.4433136 C70.1808284,13.1900592 69.4932544,13.3391716 69.5074556,13.6267456 C69.7074556,17.5261538 69.804497,21.5214201 68.3263905,25.2089941 C68.1938462,25.5415385 68.8778698,25.4764497 68.9713609,25.244497" id="Fill-11"></path>
                <path d="M70.1940828,13.5240237 C67.6331361,2.20213018 55.5751479,-1.05230769 45.4426036,0.281420118 C45.2698225,0.303905325 44.6982249,0.615147929 45.1455621,0.555976331 C55.1573964,-0.761183432 66.9976331,2.60568047 69.5076923,13.7074556 C69.5420118,13.856568 70.2295858,13.6849704 70.1940828,13.5240237" id="Fill-13"></path>
                <path d="M45.2598817,0.287810651 C39.9569231,1.46177515 35.2953846,5.28307692 34.1557396,10.6795266 C34.1143195,10.8771598 34.7947929,10.7635503 34.8350296,10.5718343 C35.9202367,5.43573964 40.2314793,1.67715976 45.3297041,0.549349112 C45.740355,0.458224852 45.6646154,0.197869822 45.2598817,0.287810651" id="Fill-15"></path>
                <path d="M34.1473373,10.6474556 C33.6053254,15.0604734 33.6775148,19.8415385 35.2869822,24.0308876 C35.412426,24.3575148 36.0952663,24.1657988 35.9721893,23.8474556 C34.3792899,19.6959763 34.3071006,14.98 34.8443787,10.6036686 C34.8893491,10.2356213 34.187574,10.3184615 34.1473373,10.6474556" id="Fill-17"></path>
                <path d="M66.1502959,26.707574 C66.5491124,21.7229586 67.035503,16.0401183 62.2840237,13.0176331 C62.1183432,12.9123077 61.5420118,13.1915976 61.6378698,13.2519527 C66.3786982,16.2685207 65.8591716,21.9584615 65.4650888,26.8910059 C65.4568047,26.9892308 66.1337278,26.9134911 66.1502959,26.707574" id="Fill-19"></path>
                <path d="M66.116213,26.7665089 C66.1659172,26.7168047 66.2144379,26.668284 66.264142,26.6185799 C66.3931361,26.4884024 65.7564497,26.5747929 65.647574,26.6848521 C65.5978698,26.7345562 65.5481657,26.7830769 65.499645,26.8327811 C65.3694675,26.9629586 66.0061538,26.8753846 66.116213,26.7665089" id="Fill-21"></path>
                <path d="M45.0478107,14.9299408 C45.172071,13.2873373 45.0063905,11.9050888 46.1827219,10.5808284 C47.2714793,9.3547929 49.136568,8.90745562 50.5957396,8.29207101 C51.0347929,8.10745562 50.6395266,7.81751479 50.3105325,7.95597633 C48.772071,8.60331361 47.1815385,9.0991716 45.8797633,10.1808284 C44.3401183,11.4601183 44.4951479,13.1938462 44.3578698,15.0009467 C44.3342012,15.3169231 45.0276923,15.1950296 45.0478107,14.9299408" id="Fill-23"></path>
                <path d="M45.0461538,14.8732544 C43.8650888,12.2839053 42.5633136,9.62828402 39.6911243,8.63538462 C39.4260355,8.54426036 38.8828402,8.92650888 39.2863905,9.06497041 C42.016568,10.0093491 43.243787,12.6081657 44.3597633,15.0566864 C44.487574,15.3359763 45.164497,15.1312426 45.0461538,14.8732544" id="Fill-25"></path>
                <path d="M46.0284024,15.0379882 C47.3183432,13.1421302 48.2970414,11.4013018 50.7928994,11.136213 C52.191716,10.988284 53.635503,11.1823669 55.0295858,11.3066272 C55.3550296,11.3350296 55.7349112,10.8628402 55.2710059,10.8214201 C53.3076923,10.6486391 51.3112426,10.423787 49.3739645,10.9054438 C47.4390533,11.3859172 46.4011834,13.4592899 45.3739645,14.9669822 C45.1656805,15.2734911 45.8674556,15.2746746 46.0284024,15.0379882" id="Fill-27"></path>
                <path d="M41.652426,46.7601183 C41.6370414,48.835858 41.496213,50.9021302 41.2642604,52.9648521 C41.0784615,54.6240237 40.9636686,57.0027219 39.9104142,58.3778698 C39.7660355,58.5684024 40.123432,58.6169231 40.2252071,58.4831953 C41.1163314,57.3198817 41.2630769,55.5743195 41.4808284,54.1826036 C41.8654438,51.7246154 42.0157396,49.2145562 42.0334911,46.7293491 C42.035858,46.5352663 41.6536095,46.5956213 41.652426,46.7601183" id="Fill-29"></path>
                <path d="M39.8055621,58.3984615 C33.5771598,62.8872189 25.9392899,65.2884024 19.1842604,68.8848521 C14.6907692,71.2753846 9.24461538,74.2907692 7.33337278,79.2777515 C7.2860355,79.399645 7.94284024,79.3298225 8.00911243,79.155858 C10.5085207,72.6386982 19.5452071,68.8221302 25.4339645,66.0801183 C30.4966864,63.7239053 35.7818935,61.695503 40.3298225,58.4173964 C40.6102959,58.2150296 39.9239053,58.312071 39.8055621,58.3984615" id="Fill-31"></path>
                <path d="M7.32650888,79.1542012 C4.31940828,87.331716 4.19514793,94.6784615 5.01053254,103.272544 C5.03538462,103.53645 5.72414201,103.379053 5.69692308,103.089112 C4.88153846,94.5009467 5.03420118,87.1908876 8.0164497,79.0820118 C8.11349112,78.8192899 7.42,78.9021302 7.32650888,79.1542012" id="Fill-33"></path>
                <path d="M5.05668639,103.163787 C5.10994083,111.511716 4.92177515,119.728284 4.41526627,128.065562 C4.39514793,128.400473 5.09100592,128.286864 5.10757396,128.001657 C5.61289941,119.664379 5.80224852,111.448994 5.74899408,103.099882 C5.74662722,102.76142 5.05550296,102.883314 5.05668639,103.163787" id="Fill-35"></path>
                <path d="M4.41881657,127.188994 C4.10047337,134.186627 1.62473373,141.05645 0.32887574,147.909704 C0.291005917,148.113254 0.972662722,147.993728 1.00934911,147.802012 C2.31112426,140.919172 4.78568047,134.032781 5.1052071,127.005562 C5.11112426,126.862367 4.42946746,126.961775 4.41881657,127.188994" id="Fill-37"></path>
                <path d="M0.326508876,147.948166 C-0.499526627,155.433373 0.358461538,163.200237 1.60816568,170.581302 C1.63065089,170.710296 2.32177515,170.558817 2.29455621,170.39787 C1.04366864,163.016805 0.185680473,155.248757 1.01171598,147.764734 C1.02,147.690178 0.348994083,147.749349 0.326508876,147.948166" id="Fill-39"></path>
                <path d="M1.41053254,170.03929 C2.21408284,175.452308 2.18923077,180.916213 2.35609467,186.375385 C2.52295858,191.79787 2.95609467,197.654675 2.25195266,203.040473 C2.22591716,203.244024 2.9087574,203.111479 2.93242604,202.930414 C3.57147929,198.03574 3.06142012,193.000237 3.05786982,188.072426 C3.05431953,182.020355 2.98686391,175.847574 2.09692308,169.855858 C2.07207101,169.687811 1.38094675,169.83929 1.41053254,170.03929" id="Fill-41"></path>
                <path d="M2.24497041,203.011243 C2.46508876,209.643195 -0.537278107,217.043195 3.06745562,223.104734 C3.22485207,223.369822 3.87928994,223.111834 3.69585799,222.802959 C0.198816568,216.921302 3.15384615,209.414793 2.93964497,202.959172 C2.92781065,202.598225 2.23431953,202.705917 2.24497041,203.011243" id="Fill-43"></path>
                <path d="M3.03893491,223.045799 C3.85550296,224.928639 5.9904142,226.778343 7.66733728,227.910888 C10.3276923,229.708521 12.6614201,231.233964 15.967929,231.379527 C16.2188166,231.390178 16.7016568,231.023314 16.2377515,231.003195 C12.8223669,230.852899 10.5620118,229.171243 7.84366864,227.334556 C6.3939645,226.354675 4.42236686,224.470651 3.72414201,222.862367 C3.62473373,222.630414 2.95136095,222.844615 3.03893491,223.045799" id="Fill-45"></path>
                <path d="M16.5443787,231.000473 C16.3952663,229.056095 15.2106509,228.064379 13.7005917,226.972071 C11.6473373,225.486864 10.4295858,224.033609 9.94319527,221.509349 C9.75857988,220.551953 9.73846154,219.541302 9.74201183,218.570888 C9.75029586,216.648994 10.8224852,216.506982 11.3715976,218.163787 C12.0177515,220.112899 12.3692308,222.163787 12.9846154,224.125917 C13.3964497,225.44071 14.4627219,226.993373 15.9715976,225.927101 C17.4887574,224.856095 17.287574,221.832426 17.2840237,220.201657 C17.2840237,220.057278 16.5976331,220.166154 16.5988166,220.385089 C16.6,221.460828 16.5491124,222.522367 16.3964497,223.588639 C16.2887574,224.330651 16.0745562,225.050178 15.6485207,225.67503 C14.712426,227.053728 13.6781065,223.967337 13.487574,223.35787 C13.0461538,221.951953 12.6804734,216.279763 10.4284024,216.391006 C8.32189349,216.495148 9.11715976,220.59574 9.25680473,221.693964 C9.50532544,223.633609 10.4130178,225.153136 11.8852071,226.381538 C13.6071006,227.818225 15.6639053,228.656095 15.8591716,231.183905 C15.8710059,231.342485 16.5609467,231.211124 16.5443787,231.000473" id="Fill-47"></path>
                <path d="M17.2840237,220.201657 C17.1668639,215.44071 15.4710059,210.979172 14.8189349,206.293964 C14.8011834,206.168521 14.1100592,206.310533 14.1337278,206.477396 C14.7857988,211.162604 16.4804734,215.624142 16.5988166,220.385089 C16.6011834,220.490414 17.2887574,220.386272 17.2840237,220.201657" id="Fill-49"></path>
                <path d="M14.8189349,206.293964 C13.9988166,199.982722 13.4934911,193.115266 14.7230769,186.827692 C14.7869822,186.506982 14.087574,186.604024 14.0307692,186.890414 C12.791716,193.224142 13.3053254,200.103432 14.1337278,206.477396 C14.1715976,206.770888 14.8591716,206.604024 14.8189349,206.293964" id="Fill-51"></path>
                <path d="M14.7207101,186.767337 C15.6260355,178.150769 18.1337278,169.688047 19.6508876,161.125917 C19.6615385,161.067929 19.0011834,161.106982 18.9656805,161.310533 C17.4414201,169.903432 14.9443787,178.296331 14.0343195,186.950769 C14.0272189,187.025325 14.6994083,186.96497 14.7207101,186.767337" id="Fill-53"></path>
                <path d="M19.5497041,161.459408 C20.352071,155.575385 19.4692308,149.654675 20.0431953,143.75645 C20.0633136,143.548166 19.3804734,143.687811 19.3627219,143.867692 C18.7899408,149.764734 19.6727811,155.685444 18.8704142,161.569467 C18.8431953,161.771834 19.5248521,161.641657 19.5497041,161.459408" id="Fill-55"></path>
                <path d="M19.9964497,143.917041 C20.2307692,137.126509 21.1455621,129.833018 22.460355,123.162012 C22.504142,122.939527 21.8189349,123.059053 21.7775148,123.262604 C20.4556213,129.973846 19.5467456,137.26497 19.3100592,144.100473 C19.304142,144.266154 19.9881657,144.157278 19.9964497,143.917041" id="Fill-57"></path>
                <path d="M22.4575148,123.042367 C22.8657988,120.720473 22.8586982,118.383195 22.8563314,116.032899 C22.8563314,115.914556 22.1699408,116.015148 22.1699408,116.216331 C22.1734911,118.545325 22.1853254,120.858935 21.7805917,123.161893 C21.7510059,123.329941 22.427929,123.212781 22.4575148,123.042367" id="Fill-59"></path>
                <path d="M22.1691124,112.044142 C22.2211834,114.926982 22.1347929,117.66071 22.7253254,120.503314 C23.1986982,122.783787 24.3549112,124.788521 24.9063905,127.039408 C24.9726627,127.308047 25.6602367,127.128166 25.5939645,126.855976 C25.1312426,124.975503 24.272071,123.279645 23.7016568,121.434675 C22.7418935,118.335266 22.915858,115.167219 22.8578698,111.970769 C22.8519527,111.653609 22.1643787,111.792071 22.1691124,112.044142" id="Fill-61"></path>
                <path d="M24.9069822,127.039882 C26.3247337,133.570059 25.5898225,141.286036 24.9460355,147.852899 C24.9211834,148.106154 25.6087574,147.968876 25.6288757,147.758225 C26.2809467,141.113254 27.0182249,133.41858 25.5933728,126.85645 C25.5472189,126.642249 24.8584615,126.813846 24.9069822,127.039882" id="Fill-63"></path>
                <path d="M25.0178698,147.306154 C24.3208284,155.515621 21.8107692,163.445799 19.2900592,171.235148 C19.2368047,171.396095 19.9078107,171.308521 19.9681657,171.122722 C22.4971598,163.307337 25.0048521,155.346391 25.7042604,147.122722 C25.7137278,147.003195 25.0368047,147.086036 25.0178698,147.306154" id="Fill-65"></path>
                <path d="M19.3382249,170.95574 C17.2553846,177.639763 15.3784615,184.945089 15.2139645,191.965207 C15.204497,192.322604 15.900355,192.218462 15.9086391,191.911953 C16.0719527,184.949822 17.9299408,177.658698 19.9938462,171.031479 C20.1110059,170.653964 19.4281657,170.666982 19.3382249,170.95574" id="Fill-67"></path>
                <path d="M15.2176331,192.030414 C14.9880473,198.269467 15.028284,204.513254 14.9395266,210.754675 C14.9371598,210.921538 15.6223669,210.809112 15.6259172,210.571243 C15.7146746,204.329822 15.6732544,198.086036 15.9040237,191.846982 C15.9099408,191.683669 15.2271006,191.791361 15.2176331,192.030414" id="Fill-69"></path>
                <path d="M15.8093491,225.510296 C16.1608284,231.995503 17.8673373,238.723314 19.1750296,245.085444 C20.6791716,252.406154 21.8590533,259.724497 24.2413018,266.832189 C24.3087574,267.032189 24.9892308,266.832189 24.9276923,266.647574 C22.5501775,259.554083 21.2933728,252.227456 19.8602367,244.902012 C18.6093491,238.507929 16.8484024,231.832189 16.4957396,225.326864 C16.4862722,225.155266 15.7975148,225.28426 15.8093491,225.510296" id="Fill-71"></path>
                <path d="M24.2413018,266.831598 C27.9915976,277.402012 27.2495858,288.442249 25.8223669,299.336923 C25.7939645,299.553491 26.4779882,299.42213 26.5028402,299.230414 C27.9359763,288.29787 28.6969231,277.275385 24.9276923,266.648166 C24.8578698,266.450533 24.1785799,266.655266 24.2413018,266.831598" id="Fill-73"></path>
                <path d="M25.82,299.375976 C25.2957396,304.778343 25.1146746,310.166509 25.228284,315.593728 C25.3702959,322.366509 28.3265089,328.559408 30.8010651,334.731006 C30.8649704,334.889586 31.5347929,334.668284 31.4862722,334.546391 C29.2164497,328.886036 26.7407101,323.372426 26.0353846,317.26355 C25.3525444,311.360592 25.9347929,305.080118 26.5052071,299.192544 C26.5134911,299.109704 25.8389349,299.175976 25.82,299.375976" id="Fill-75"></path>
                <path d="M30.8010651,334.730414 C33.3194083,340.537515 34.5454438,346.653491 35.4685207,352.891361 C36.4046154,359.212071 37.6448521,365.76355 37.8969231,372.141065 C37.9111243,372.498462 38.603432,372.386036 38.5915976,372.086627 C38.359645,366.233373 37.1418935,360.400237 36.4081657,354.588402 C35.5430769,347.731598 34.2472189,340.910296 31.4862722,334.546982 C31.3560947,334.246391 30.6768047,334.444024 30.8010651,334.730414" id="Fill-77"></path>
                <path d="M37.6976331,371.939763 C37.743787,375.368166 38.656213,379.511361 36.5721893,382.530296 C36.3201183,382.893609 36.960355,383.034438 37.1532544,382.756331 C39.3248521,379.609586 38.4431953,375.475858 38.3946746,371.89716 C38.3887574,371.518462 37.6928994,371.608402 37.6976331,371.939763" id="Fill-79"></path>
                <path d="M36.615858,382.556568 C34.8691124,385.053609 28.928284,389.028757 29.2040237,392.547101 C29.5460355,396.928166 34.363787,398.104497 37.9886391,398.526982 C38.2643787,398.558935 38.7128994,398.17432 38.2513609,398.119882 C33.5128994,397.567219 27.5342012,394.921065 31.3188166,389.347101 C33.0087574,386.859527 35.5294675,385.051243 37.2572781,382.58142 C37.4442604,382.313964 36.7507692,382.363669 36.615858,382.556568" id="Fill-81"></path>
                <path d="M37.8467456,398.547929 C39.2337278,398.687574 40.5662722,398.821302 41.943787,398.563314 C42.4443787,398.469822 42.8964497,398.229586 43.3118343,397.949112 C44.3556213,397.242604 44.6988166,397.848521 45.3224852,398.359763 C45.5284024,398.527811 46.1461538,398.227219 45.8585799,397.991716 C45.2857988,397.523077 44.7579882,396.727811 43.8928994,397.040237 C43.1319527,397.313609 42.656213,397.904142 41.8337278,398.150296 C40.6727811,398.499408 39.2822485,398.218935 38.0976331,398.099408 C37.7946746,398.068639 37.3828402,398.501775 37.8467456,398.547929" id="Fill-83"></path>
                <path d="M45.3853254,398.379172 C46.7214201,398.883314 48.3498225,399.103432 49.7226036,398.63716 C51.0847337,398.174438 51.5592899,396.639527 51.9261538,395.40284 C52.0078107,395.125917 51.3131361,395.219408 51.2373964,395.47503 C50.8598817,396.744852 50.4350296,398.206391 48.8977515,398.428876 C47.8906509,398.573254 46.7356213,398.327101 45.7959763,397.972071 C45.5521893,397.880947 44.992426,398.231243 45.3853254,398.379172" id="Fill-85"></path>
                <path d="M51.9248521,395.150178 C52.3532544,392.571479 51.647929,390.079172 51.8491124,387.489822 C52.0727811,384.602249 54.0656805,382.45432 53.9260355,379.494556 C53.9213018,379.397515 53.2313609,379.505207 53.239645,379.677988 C53.3686391,382.409349 51.6928994,384.247219 51.2952663,386.81645 C50.8514793,389.688639 51.7130178,392.476805 51.2384615,395.333609 C51.2301775,395.384497 51.891716,395.346627 51.9248521,395.150178" id="Fill-87"></path>
                <path d="M53.9218935,379.370888 C53.3668639,375.375621 52.7585799,371.076213 51.8544379,367.11645 C50.7680473,362.35787 48.8781065,358.206391 48.6710059,353.262012 C48.6650888,353.133018 47.9763314,353.246627 47.983432,353.445444 C48.1704142,357.847811 49.6035503,361.499882 50.7704142,365.691598 C51.9988166,370.106982 52.6094675,375.050178 53.235503,379.55432 C53.2568047,379.699882 53.9467456,379.555503 53.9218935,379.370888" id="Fill-89"></path>
                <path d="M48.672071,353.540592 C49.7525444,340.12284 52.072071,326.847101 52.0010651,313.377278 C51.9986982,313.053018 51.3087574,313.183195 51.3099408,313.447101 C51.3821302,326.916923 49.0626036,340.192663 47.9821302,353.610414 C47.9560947,353.928757 48.6507692,353.809231 48.672071,353.540592" id="Fill-91"></path>
                <path d="M51.9988166,313.61645 C51.3207101,306.509941 50.635503,299.183314 51.4319527,292.066154 C52.2508876,284.735976 53.9715976,277.776213 54.4402367,270.346627 C54.443787,270.26497 53.7656805,270.338343 53.7526627,270.531243 C53.3301775,277.262604 52.2023669,283.547811 51.0899408,290.186864 C49.791716,297.951361 50.5692308,306.005799 51.312426,313.799882 C51.3242604,313.914675 52.0153846,313.788047 51.9988166,313.61645" id="Fill-93"></path>
                <path d="M54.4390533,270.394675 C55.7100592,258.530769 55.6946746,246.542604 55.6970414,234.621893 C55.6970414,234.41716 55.0106509,234.54497 55.0106509,234.806509 C55.0094675,246.690533 55.0213018,258.652663 53.7538462,270.483432 C53.7254438,270.752071 54.4142012,270.62071 54.4390533,270.394675" id="Fill-95"></path>
                <path d="M55.6970414,234.622367 C55.6674556,227.804615 55.9550296,220.554911 53.5242604,214.081538 C53.4639053,213.920592 52.7893491,214.134793 52.8378698,214.26497 C55.2686391,220.739527 54.9810651,227.989231 55.0106509,234.805799 C55.0106509,234.914675 55.6970414,234.81645 55.6970414,234.622367" id="Fill-97"></path>
                <path d="M57.839645,214.170059 C58.2526627,222.431598 59.3911243,231.609112 61.8207101,239.482485 C64.8207101,249.204379 65.3923077,259.688402 69.5816568,268.978343 C69.6704142,269.173609 70.3378698,268.948757 70.2680473,268.793728 C66.0692308,259.486036 65.587574,249.016213 62.5071006,239.299053 C60.0254438,231.469467 58.9366864,222.21858 58.5260355,213.986627 C58.5177515,213.824497 57.8289941,213.949941 57.839645,214.170059" id="Fill-99"></path>
                <path d="M69.507574,268.829822 C71.3170414,274.51858 72.1655621,281.950533 69.8981065,287.631006 C68.2519527,291.754083 65.2176331,294.92568 63.8176331,299.274793 C63.7821302,299.386036 64.4401183,299.311479 64.4933728,299.148166 C66.0105325,294.429822 69.2271006,290.873609 71.0306509,286.355266 C73.0827219,281.212071 71.7998817,273.694911 70.1939645,268.646391 C70.1489941,268.503195 69.4673373,268.703195 69.507574,268.829822" id="Fill-101"></path>
                <path d="M63.8128994,299.254675 C61.7028402,311.300828 66.776213,324.03574 63.3691124,335.71858 C63.2981065,335.962367 63.9868639,335.862959 64.0543195,335.632189 C67.4732544,323.911479 62.3856805,311.227456 64.4981065,299.168284 C64.5442604,298.904379 63.8531361,299.022722 63.8128994,299.254675" id="Fill-103"></path>
                <path d="M63.4453254,335.728994 C62.5624852,339.908876 60.9790533,343.466272 59.2642604,347.332544 C57.4713609,351.376331 56.2346746,354.080473 57.5257988,358.549112 C57.5814201,358.742012 58.2654438,358.552663 58.2121893,358.364497 C56.975503,354.089941 58.1695858,351.047337 59.9447337,347.226036 C61.7222485,343.39645 63.2476923,339.784615 64.1257988,335.622485 C64.1684024,335.420118 63.4867456,335.533728 63.4453254,335.728994" id="Fill-105"></path>
                <path d="M57.4513609,358.031006 C58.8265089,362.958817 62.5874556,366.297278 63.1093491,371.723314 C63.5543195,376.339882 62.3271006,379.294911 65.9046154,382.762367 C66.0383432,382.892544 66.667929,382.638107 66.5484024,382.524497 C62.667929,378.76355 64.12,374.903195 63.6454438,369.978935 C63.1957396,365.298462 59.3342012,362.135148 58.1377515,357.847574 C58.0904142,357.679527 57.4052071,357.866509 57.4513609,358.031006" id="Fill-107"></path>
                <path d="M65.8151479,382.919527 C67.352426,384.057988 69.4033136,383.849704 71.2175148,383.768047 C72.8328994,383.695858 74.4471006,383.704142 76.0636686,383.698225 C77.5855621,383.691124 79.5405917,384.164497 81.0518343,383.72071 C86.2991716,382.178698 80.9891124,376.248521 79.2613018,374.205917 C79.0542012,373.959763 78.4033136,374.239053 78.6352663,374.512426 C79.5595266,375.605917 80.5867456,376.601183 81.4861538,377.715976 C82.3950296,378.84142 82.5760947,380.145562 82.4471006,381.528994 C82.2340828,383.811834 79.5914793,383.242604 78.4210651,383.215385 C76.4861538,383.166864 74.5512426,383.190533 72.6163314,383.197633 C70.5985799,383.205917 68.0991716,383.816568 66.3417751,382.514793 C66.0873373,382.326627 65.4932544,382.680473 65.8151479,382.919527" id="Fill-109"></path>
                <path d="M79.4130178,374.514083 C75.4911243,368.867929 74.6591716,362.786272 73.5964497,356.220592 C73.5526627,355.950769 72.8639053,356.118817 72.9100592,356.404024 C73.4615385,359.812308 73.4923077,363.209941 74.7585799,366.463195 C75.8863905,369.355503 77.0011834,372.235976 78.7798817,374.79574 C78.9301775,375.012308 79.591716,374.772071 79.4130178,374.514083" id="Fill-111"></path>
                <path d="M73.6704142,356.632663 C73.6147929,352.548639 73.2976331,348.494201 73.9035503,344.431479 C74.5485207,340.11432 77.1343195,335.830296 79.2147929,332.074083 C79.2940828,331.930888 78.639645,331.986509 78.5343195,332.177041 C76.3544379,336.113136 74.2905325,340.140355 73.2230769,344.535621 C72.2692308,348.456331 72.9295858,352.839763 72.9840237,356.816095 C72.9863905,356.981775 73.6727811,356.863432 73.6704142,356.632663" id="Fill-113"></path>
                <path d="M79.1426036,332.301183 C81.4526627,326.853846 83.5402367,321.317751 85.8727811,315.881065 C88.0786982,310.742604 90.9745562,306.163905 91.9390533,300.571006 C91.9816568,300.322485 91.2928994,300.444379 91.2538462,300.663314 C90.2988166,306.202959 87.5236686,310.930769 85.1887574,315.973373 C82.708284,321.335503 80.7650888,326.954438 78.4585799,332.393491 C78.3745562,332.593491 79.0514793,332.515385 79.1426036,332.301183" id="Fill-115"></path>
                <path d="M91.9360947,300.561775 C92.1952663,297.779527 91.7538462,294.810296 92.7846154,292.192544 C94.0426036,288.998462 95.8272189,286.558225 96.2260355,283.031598 C96.2497041,282.823314 95.5668639,282.959408 95.5467456,283.141657 C95.2023669,286.18071 94.0130178,288.696686 92.5775148,291.361775 C90.9786982,294.331006 91.5609467,297.413846 91.2568047,300.671834 C91.2366864,300.882485 91.9195266,300.741657 91.9360947,300.561775" id="Fill-117"></path>
                <path d="M96.223787,283.022367 C97.3705325,277.771479 96.5835503,272.556095 96.4510059,267.241302 C96.3113609,261.601065 97.9492308,255.880355 98.0048521,250.154911 C98.0048521,250.069704 97.3208284,250.157278 97.3184615,250.338343 C97.2687574,255.538343 96.5622485,260.300473 95.8652071,265.430651 C95.0592899,271.376213 96.8581065,277.162012 95.5492308,283.151361 C95.5220118,283.275621 96.1894675,283.17858 96.223787,283.022367" id="Fill-119"></path>
                <path d="M98.004142,250.20284 C99.0775148,235.728284 96.9710059,221.773254 95.9331361,207.40284 C95.9177515,207.182722 95.2289941,207.327101 95.2467456,207.587456 C96.2810651,221.899882 98.387574,235.87503 97.3189349,250.290414 C97.2976331,250.567337 97.987574,250.430059 98.004142,250.20284" id="Fill-121"></path>
                <path d="M95.9371598,207.465325 C96.003432,197.135148 95.9892308,187.700828 91.8661538,178.03929 C91.7407101,177.748166 91.0614201,177.946982 91.1785799,178.223905 C95.255503,187.770651 95.3099408,197.285444 95.2436686,207.52568 C95.2413018,207.871243 95.9347929,207.75645 95.9371598,207.465325" id="Fill-123"></path>
                <path d="M91.8656805,177.965562 C88.9934911,169.211716 87.8763314,159.560828 87.4278107,150.377396 C87.4147929,150.122959 86.7272189,150.272071 86.7414201,150.560828 C87.1911243,159.74426 88.3071006,169.395148 91.1792899,178.148994 C91.2680473,178.417633 91.9508876,178.224734 91.8656805,177.965562" id="Fill-125"></path>
                <path d="M87.4278107,150.524734 C87.5319527,138.788639 89.3662722,127.827692 93.1224852,116.747219 C93.1733728,116.596923 92.5071006,116.679763 92.4443787,116.862012 C88.6715976,127.992189 86.8467456,138.942485 86.7414201,150.708166 C86.7402367,150.835976 87.4254438,150.734201 87.4278107,150.524734" id="Fill-127"></path>
                <path d="M91.3894675,108.252899 C91.3953846,119.727456 97.7054438,129.909704 98.6498225,141.314438 C98.6592899,141.429231 99.3504142,141.306154 99.336213,141.131006 C98.3918343,129.726272 92.0805917,119.544024 92.0746746,108.069467 C92.0746746,107.971243 91.3894675,108.065917 91.3894675,108.252899" id="Fill-129"></path>
                <path d="M98.6495858,141.31503 C98.6566864,147.651124 99.280355,153.691361 100.128876,159.958817 C100.984497,166.287811 103.335976,172.162367 104.34426,178.445207 C104.379763,178.661775 105.069704,178.500828 105.031834,178.261775 C104.022367,171.975385 101.500473,166.135148 100.814083,159.775385 C100.134793,153.486627 99.3430769,147.481893 99.3359763,141.131598 C99.3359763,140.936331 98.6495858,141.060592 98.6495858,141.31503" id="Fill-131"></path>
                <path d="M104.270888,178.149349 C104.922959,181.79787 104.727692,185.446391 104.418817,189.117396 C104.111124,192.758817 102.06497,195.964734 100.793964,199.324497 C100.700473,199.571834 101.390414,199.486627 101.481538,199.246391 C102.786864,195.796686 104.562012,192.726864 105.106391,189.03929 C105.637751,185.433373 105.597515,181.550533 104.957278,177.965917 C104.912308,177.710296 104.222367,177.879527 104.270888,178.149349" id="Fill-133"></path>
                <path d="M100.797396,199.338462 C100.380828,200.797633 97.3299408,217.760947 98.7027219,217.790533 C101.290888,217.846154 103.554793,212.048521 104.854201,210.293491 C105.011598,210.081657 104.335858,210.169231 104.225799,210.318343 C103.470769,211.337278 102.822249,212.44142 102.127574,213.500592 C101.709822,214.138462 99.1121893,218.097041 98.9311243,216.704142 C98.6518343,214.556213 99.4695858,211.736095 99.692071,209.616568 C100.061302,206.102959 100.506272,202.63787 101.47787,199.231953 C101.532308,199.042604 100.853018,199.142012 100.797396,199.338462" id="Fill-135"></path>
                <path d="M104.418817,210.545799 C106.370296,215.969467 103.313491,221.126864 100.964379,225.746982 C99.8507692,227.935148 100.824734,230.471243 103.076805,231.215621 C103.315858,231.296095 103.883905,230.946982 103.488639,230.815621 C98.1797633,229.060592 103.713491,222.616805 104.837751,219.628639 C105.793964,217.086627 106.037751,212.954083 105.105207,210.362367 C105.010533,210.098462 104.328876,210.296095 104.418817,210.545799" id="Fill-137"></path>
                <path d="M103.435266,231.220592 C107.11574,229.753136 109.283787,225.648994 111.632899,222.686864 C115.255385,218.115266 115.578462,214.270296 115.464852,208.505799 C115.457751,208.142485 114.763077,208.245444 114.768994,208.556686 C114.866036,213.451361 114.899172,217.35432 111.864852,221.501065 C109.611598,224.580355 106.763077,229.363787 103.129941,230.811124 C102.693254,230.986272 103.080237,231.36142 103.435266,231.220592" id="Fill-139"></path>
                <path d="M115.462604,208.496686 C115.209349,198.522722 114.030651,187.619763 116.202249,177.802012 C116.268521,177.499053 115.571479,177.599645 115.511124,177.869467 C113.34071,187.688402 114.519408,198.591361 114.771479,208.565325 C114.779763,208.893136 115.468521,208.762959 115.462604,208.496686" id="Fill-141"></path>
                <path d="M116.19645,177.781302 C121.306509,162.129231 118.616568,142.724497 113.018935,127.595503 C112.947929,127.403787 112.271006,127.612071 112.332544,127.780118 C117.91716,142.870059 120.598817,162.32568 115.51716,177.890178 C115.459172,178.064142 116.133728,177.974201 116.19645,177.781302" id="Fill-143"></path>
                <path d="M113.019527,127.59574 C112.147337,122.360237 112.315385,117.092781 111.976923,111.817041 C111.791124,108.918817 110.957988,106.11645 110.264497,103.311716 C109.361538,99.6620118 109.421893,95.815858 109.250296,92.0809467 C109.234911,91.7353846 108.54497,91.8560947 108.556805,92.1413018 C108.807692,97.563787 109.34142,102.536568 110.650296,107.832426 C112.247929,114.290414 111.238462,121.205207 112.333136,127.779172 C112.38284,128.07858 113.070414,127.905799 113.019527,127.59574" id="Fill-145"></path>
                <path d="M109.321302,92.4626036 C109.322485,85.9359763 109.162722,79.8519527 105.69645,74.1194083 C102.359172,68.5986982 96.8798817,67.1667456 90.9887574,65.4164497 C90.8207101,65.3667456 90.2076923,65.6318343 90.4289941,65.6981065 C97.2763314,67.7312426 102.124852,69.5312426 105.94497,75.8484024 C108.916568,80.7631953 108.637278,87.1359763 108.634911,92.6460355 C108.634911,92.7833136 109.321302,92.6768047 109.321302,92.4626036" id="Fill-147"></path>
                <path d="M90.9179882,65.3673373 C79.2872189,62.2691124 67.2150296,57.6276923 64.4990533,44.311716 C64.4481657,44.0667456 63.7605917,44.2395266 63.8126627,44.4951479 C66.5452071,57.8915976 78.7771598,62.6253254 90.4990533,65.7472189 C90.7239053,65.807574 91.3097041,65.4714793 90.9179882,65.3673373" id="Fill-149"></path>
                <path d="M36.4442604,73.4346746 C40.4205917,72.7613018 46.0312426,71.0500592 49.8040237,72.7968047 C51.0667456,73.3814201 53.5910059,73.8370414 54.9247337,73.7328994 C61.0691124,73.2536095 67.9673373,69.3376331 73.3874556,66.6547929 C73.8146746,66.4429586 73.4194083,66.2346746 73.1188166,66.383787 C67.0407101,69.3908876 58.1046154,74.0997633 51.2182249,72.7269822 C49.3957396,72.3636686 48.7981065,71.6654438 47.0560947,71.6547929 C43.5732544,71.6334911 39.9602367,72.4855621 36.5413018,73.0654438 C36.2205917,73.1198817 35.9708876,73.5139645 36.4442604,73.4346746" id="Fill-151"></path>
                <path d="M19.9028402,107.562367 C22.1016568,113.274793 26.784497,118.117396 33.0057988,118.845207 C36.4176331,119.245207 41.0353846,119.736331 44.0779882,117.711479 C44.3620118,117.52213 43.6732544,117.613254 43.5525444,117.693728 C39.4188166,120.445207 30.6069822,118.636923 26.8981065,116.07716 C24.0921893,114.141065 21.7986982,110.519763 20.5880473,107.378935 C20.5253254,107.215621 19.8519527,107.432189 19.9028402,107.562367" id="Fill-153"></path>
                <path d="M67.3239053,113.812308 C71.0126627,115.600473 76.8813018,115.785089 80.8256805,114.955503 C86.0386982,113.859645 89.5061538,110.798107 93.1049704,106.986272 C93.2398817,106.843077 92.5949112,106.931834 92.4860355,107.046627 C88.3310059,111.446627 84.8706509,114.673846 77.964142,114.938935 C74.7191716,115.063195 70.9345562,115.019408 67.9712426,113.583905 C67.7937278,113.497515 67.2588166,113.781538 67.3239053,113.812308" id="Fill-155"></path>
                <path d="M54.9620118,108.008402 C54.7667456,118.510178 54.5821302,129.011953 54.567929,139.514911 C54.567929,139.717278 55.2531361,139.590651 55.2531361,139.331479 C55.2673373,128.85929 55.4519527,118.388284 55.6472189,107.918462 C55.6519527,107.642722 54.9667456,107.790651 54.9620118,108.008402" id="Fill-157"></path>
                <path d="M53.680355,155.293728 C53.7572781,155.460592 53.7892308,155.638107 53.7750296,155.823905 C53.7797633,156.104379 54.1880473,156.058225 54.3454438,155.937515 C54.7087574,155.659408 55.1584615,155.660592 55.4910059,155.292544 C55.280355,155.272426 55.0697041,155.252308 54.8602367,155.232189 C54.863787,155.43929 54.8732544,155.570651 54.9892308,155.743432 C55.1004734,155.907929 55.4010651,155.831006 55.5288757,155.739882 C56.1028402,155.333964 56.3063905,154.692544 56.5182249,154.049941 C56.6389349,153.68426 55.9560947,153.716213 55.8661538,153.987219 C55.6957396,154.503195 55.5489941,155.120947 55.080355,155.452308 L55.62,155.448757 C55.5975148,155.35645 55.5750296,155.264142 55.5525444,155.171834 C55.5454438,154.854675 55.0649704,154.952899 54.9217751,155.111479 C54.6495858,155.412071 54.2128994,155.408521 53.8969231,155.649941 C54.0874556,155.687811 54.2768047,155.72568 54.4673373,155.76355 C54.463787,155.526864 54.4448521,155.336331 54.3655621,155.110296 C54.2614201,154.813254 53.5797633,155.00497 53.680355,155.293728" id="Fill-159"></path>
                <path d="M19.4792899,171.198935 C23.9798817,173.620237 29.4414201,173.90071 34.4189349,174.74568 C41.0248521,175.867574 47.6023669,176.588284 54.3005917,176.874675 C66.0946746,177.377633 78.8934911,177.557515 90.2863905,174.009586 C90.6792899,173.886509 90.6236686,173.658107 90.2248521,173.782367 C78.9088757,177.306627 66.4532544,176.944497 54.7420118,176.58355 C48.8094675,176.401302 42.9431953,175.757515 37.0828402,174.820237 C31.5869822,173.940947 25.087574,173.632071 20.1242604,170.961065 C19.9455621,170.864024 19.3810651,171.146864 19.4792899,171.198935" id="Fill-161"></path>
                <path d="M18.4997633,176.919645 C30.7305325,181.524379 44.1080473,182.514911 57.1151479,183.348047 C63.4938462,183.756331 69.9056805,183.437988 76.2749112,183.037988 C82.1447337,182.668757 86.4536095,181.191834 92.0500592,179.566982 C92.4500592,179.451006 92.383787,179.193018 91.9814201,179.310178 C79.1506509,183.035621 66.6405917,183.796568 53.2997633,182.730296 C41.6938462,181.803669 29.9707692,180.740947 19.0571598,176.632071 C18.887929,176.568166 18.2642604,176.830888 18.4997633,176.919645" id="Fill-163"></path>
                <path d="M15.2788166,194.783787 C25.6243787,197.250059 36.7297041,201.014556 45.5119527,207.162485 C45.6705325,207.273728 46.2575148,206.997988 46.1581065,206.929349 C37.4018935,200.799172 26.1616568,196.97787 15.8433136,194.516331 C15.6823669,194.478462 15.0823669,194.73645 15.2788166,194.783787" id="Fill-165"></path>
                <path d="M40.2892308,199.508284 C44.1732544,204.518935 46.555503,212.17929 53.0182249,214.349704 C55.632426,215.226627 59.5578698,214.13432 61.2395266,211.994675 C61.4004734,211.789941 60.7259172,211.873964 60.6123077,212.019527 C57.5010651,215.97574 52.4750296,214.135503 49.511716,211.784024 C47.9211834,210.522485 47.0549112,208.518935 46.0821302,206.786391 C44.5957396,204.14142 42.7862722,201.652663 40.9318343,199.259763 C40.8134911,199.108284 40.1566864,199.336686 40.2892308,199.508284" id="Fill-167"></path>
                <path d="M61.263432,211.943077 C69.888284,201.049586 80.9936095,195.456686 95.0693491,195.455503 C95.2018935,195.455503 95.8468639,195.195148 95.5202367,195.195148 C80.8172781,195.196331 69.6646154,200.608166 60.5888757,212.070888 C60.5604734,212.107574 61.140355,212.098107 61.263432,211.943077" id="Fill-169"></path>
            </g>
        </g>
    </g>
</svg>