<?xml version="1.0" encoding="utf-8"?>
<!-- Generator: Adobe Illustrator 19.1.1, SVG Export Plug-In . SVG Version: 6.00 Build 0)  -->
<svg version="1.1" id="Слой_1" xmlns="http://www.w3.org/2000/svg" xmlns:xlink="http://www.w3.org/1999/xlink" x="0px" y="0px"
	 width="17px" height="17px" viewBox="-491 492 17 17" style="enable-background:new -491 492 17 17;" xml:space="preserve">
<style type="text/css">
	.st0{fill:#FFFFFF;stroke:#FFFFFF;}
</style>
<title>icon_close</title>
<desc>Created with Sketch.</desc>
<g id="Page-1">
	<g id="_x30_3-all-models-_x2013_-model-card-_x28_vertical-photo-view_x29_" transform="translate(-1322.000000, -22.000000)">
		<path id="icon_close" class="st0" d="M832.2,515C832.2,515,832.2,515,832.2,515c-0.2,0-0.3,0.3-0.1,0.4l7.1,7.1l-7.1,7.1
			c-0.1,0.1-0.1,0.2,0,0.3c0.1,0.1,0.2,0.1,0.3,0l7.1-7.1l7.1,7.1c0.1,0.1,0.2,0.1,0.3,0c0.1-0.1,0.1-0.2,0-0.3l-7.1-7.1l7.1-7.1
			c0.1-0.1,0-0.4-0.2-0.4c0,0-0.1,0-0.1,0.1l-7.1,7.1l-7.1-7.1C832.3,515,832.3,515,832.2,515L832.2,515L832.2,515z"/>
	</g>
</g>
</svg>
