<?xml version="1.0" encoding="utf-8"?>
<!-- Generator: Adobe Illustrator 21.0.2, SVG Export Plug-In . SVG Version: 6.00 Build 0)  -->
<svg version="1.1" id="Layer_1" xmlns="http://www.w3.org/2000/svg" xmlns:xlink="http://www.w3.org/1999/xlink" x="0px" y="0px"
	 viewBox="0 0 25 23" style="enable-background:new 0 0 25 23;" xml:space="preserve">
<style type="text/css">
	.st0{fill:#FFFFFF;}
</style>
<path class="st0" d="M10.7,22c-0.4-0.2-0.5-0.3-0.8-0.6c-0.1-0.1-0.3-0.2-0.3-0.3c0-0.1,0-0.2-0.1-0.3c-0.1-0.1-0.2-0.1-0.4-0.2
	c-0.6-0.1-1.3,0.1-1.8,0.2c0.1,0.8,0.3,1.6,0.9,2c0.2-0.1,0.3,0.1,0.4,0.2c0.1,0,0.3,0,0.5,0c0.4,0,0.6,0,0.9-0.1
	c0.5-0.2,1-0.5,1.3-0.6C11.1,22.2,11,22.1,10.7,22z M5,21.6c0.1,0.2,0.2,0.4,0.3,0.5c0.2,0.2,0.7,0.5,1,0.6c0.2,0.1,0.4,0.1,0.7,0.1
	c0.4,0.1,0.8,0.1,1.1,0c0-0.1-0.2-0.1-0.3-0.2c-0.3-0.5-0.7-1-0.6-2c-0.5-0.3-0.9-0.6-1.4-0.8C5.7,20.5,5.5,21.3,5,21.6z M13.9,20.1
	c-1,0.1-1.8-0.1-2.2-0.6c-0.6,0.3-1.4,0.5-1.8,1.1c0.2,0.2,0.2,0.5,0.4,0.7c0.1,0.1,0.3,0.2,0.4,0.3c0.1,0.1,0.2,0.2,0.3,0.3
	c0.9,0.4,1.7-0.1,2.2-0.5C13.4,20.8,13.8,20.5,13.9,20.1C13.9,20.1,13.9,20.1,13.9,20.1L13.9,20.1z M4,20c-0.2,0-0.5-0.2-0.7-0.2
	c-0.1,0-0.3,0.2-0.3,0.3c-0.3,0.4-0.5,1-0.5,1.7C2.8,22,3,22.1,3.4,22c0.3-0.1,0.6-0.2,0.9-0.4c0.2-0.1,0.5-0.3,0.7-0.4
	c0.2-0.2,0.2-0.4,0.3-0.6c0.1-0.1,0.1-0.2,0.2-0.4c0.1-0.3,0.1-0.6,0.1-0.9c0,0,0,0,0,0C5.3,19.7,4.5,20,4,20z M14.8,17.9
	c-0.1,0-0.2,0.1-0.3,0.1c-0.6,0.1-1.3,0-1.8-0.1c-0.3,0.4-0.6,0.9-0.9,1.4c0.2,0.2,0.6,0.2,0.8,0.4c0.3,0,0.5,0.2,0.8,0.2
	c0.2,0,0.6-0.1,0.8-0.2c0.3-0.1,0.3-0.4,0.5-0.7c0.1-0.1,0.2-0.3,0.3-0.4c0.1-0.2,0.1-0.5,0.2-0.7C15,18,14.9,17.9,14.8,17.9z
	 M2.8,18.2c-0.1,0.1-0.1,0.3-0.2,0.4c-0.1,0.2-0.2,0.3-0.2,0.4c-0.1,0.4,0.3,0.7,0.3,1c0.1-0.2,0.4-0.3,0.5-0.6c0-0.2,0-0.4,0-0.5
	c0.1-0.6,0.4-1.1,0.6-1.6c0,0,0,0,0,0C3.5,17.6,3,17.9,2.8,18.2z M3.9,19.7c0.3,0.1,0.6,0,0.8-0.1c0.4-0.1,0.7-0.3,0.9-0.5
	c0.2-0.1,0.4-0.4,0.5-0.6c0-0.1,0-0.2,0.1-0.3c0.1-0.1,0.2-0.2,0.2-0.3c0.1-0.3,0-0.6,0-0.9c-0.4,0.2-0.9,0.6-1.5,0.6
	c-0.2,0-0.5-0.1-0.8-0.1c-0.4,0.5-0.5,1.3-0.7,2C3.6,19.5,3.7,19.7,3.9,19.7L3.9,19.7z M13.7,15.5c0,0.3,0.1,0.6,0.2,0.9
	c0,0.1,0.1,0.2,0.2,0.3c0.1,0.1,0.1,0.3,0.1,0.4c0.1,0.1,0.4,0.4,0.6,0.5c0.1,0,0.4,0.2,0.4,0.2c0.1,0,0.4-0.1,0.6-0.1
	c0.8-0.2,1.5-0.3,1.9-0.8c-0.5-0.1-0.9-0.4-1.2-0.7c-0.3-0.2-0.5-0.5-0.6-0.8C15.1,15.3,14.3,15.3,13.7,15.5z M2.2,15.5
	c-0.4,0.2-0.7,0.5-0.8,1.1c-0.1,0.4,0.1,0.6,0.1,0.9c0.1,0.6,0.3,1.2,0.7,1.5c0-0.3,0.1-0.4,0.2-0.7c0.3-0.2,0.4-0.6,0.7-0.8
	c0.2-0.1,0.4-0.2,0.7-0.3c0-0.7,0.1-1.6-0.1-2.1C3,15,2.6,15.3,2.2,15.5L2.2,15.5z M11.2,15.8c0,0.2,0.1,0.4,0.1,0.6
	c0.2,0.8,0.7,1,1.5,1.2c0.4,0.1,0.8,0.2,1.3,0.1c0.1,0,0.3-0.1,0.4-0.1c0-0.1-0.2-0.1-0.3-0.1c-0.2-0.2-0.3-0.4-0.4-0.8
	c-0.1-0.4-0.3-0.7-0.3-1.2c-0.5-0.4-1.1-0.7-1.9-0.8C11.5,14.9,11.2,15.5,11.2,15.8z M4.9,15.2c-0.5,0.4-0.8,1.2-0.6,2
	c0.1,0.1,0.2,0.2,0.4,0.2c0.2,0,0.4-0.1,0.5-0.1c0.1,0,0.2,0,0.2,0c0.2-0.1,0.9-0.5,1-0.6c0.1-0.1,0.1-0.2,0.1-0.3
	c0.1-0.1,0.2-0.2,0.3-0.3c0.2-0.4,0.3-1.1,0.1-1.6c0,0,0,0,0,0C6.4,14.9,5.9,15.3,4.9,15.2z M8.1,14.3c-0.4,0-0.7,0-1,0.1
	c0.2,0.3,0.1,0.9,0.1,1.3C7.1,15.9,7,16.1,7,16.3c0.2,0.1,0.4,0.3,0.7,0.4c0.7,0.1,1.4-0.2,1.8-0.4c-0.2-0.5-0.7-0.6-0.8-1.2
	C8.4,14.9,8.3,14.5,8.1,14.3z M18.5,14.6c-0.2-0.2-0.5-0.3-0.7-0.4c-0.3,0.1-0.6,0.3-1,0.4c-0.3,0.3-0.5,0.5-0.9,0.7
	c0.3,0.3,0.5,0.7,0.9,1c0.1,0.1,0.2,0.1,0.4,0.2c0.3,0.1,0.5,0.3,1,0.2c0.1,0,0.2-0.1,0.3-0.1c0.1,0,0.2-0.1,0.3-0.1
	c0.1-0.1,0.2-0.2,0.3-0.3c0.2-0.2,0.5-0.3,0.6-0.5c0.2-0.3,0.3-0.7,0.5-0.9C19.7,14.7,19,14.7,18.5,14.6z M20.1,13.4
	c-0.6,0.4-1.4,0.6-2.2,0.6c0.2,0,0.3,0.2,0.5,0.3c0.1,0.1,0.3,0.1,0.5,0.1c0.2,0,0.4,0.1,0.5,0.1c0.3,0,0.5-0.2,0.8-0.3
	c0.1-0.3,0.5-0.3,0.5-0.6C20.7,13.7,20.3,13.4,20.1,13.4z M11.7,14.3c0.4,0.2,1,0.3,1.5,0.5c0.3,0.1,0.3,0.3,0.7,0.3
	c0.4-0.1,0.9-0.3,1.1-0.5c0.1-0.1,0.2-0.2,0.3-0.3c0.1-0.2,0-0.3-0.1-0.4c-0.3-0.3-0.5-0.6-0.9-0.7c-0.1,0-0.3,0-0.4-0.1
	c-0.2-0.1-0.4-0.2-0.7-0.2c-0.8,0.1-1.4,0.6-1.7,1.1C11.5,14.1,11.6,14.2,11.7,14.3z M10,12.8c-0.1,0.1-0.2,0.2-0.4,0.3
	C9.3,13.4,9,14,9,14.5c0,0.3,0.1,0.4,0.2,0.7c0.2,0.3,0.2,0.4,0.5,0.7c0.4,0.4,1,0.8,1.5,1c0-0.2-0.2-0.4-0.2-0.6
	c-0.1-0.5,0.1-1,0.2-1.4c0.1-0.1,0.3-0.2,0.3-0.3C11,13.9,10.7,13.2,10,12.8z M3,12.6c-0.1,0-0.2,0.1-0.3,0.2c-0.1,0-0.3,0-0.4,0.1
	c0,0-0.1,0.1-0.1,0.2c-0.1,0.2-0.3,0.3-0.4,0.5c0,0.1,0,0.3-0.1,0.4c0,0.1-0.2,0.2-0.2,0.4c-0.1,0.4,0.1,0.9,0,1.4
	c0.5-0.4,1.2-0.8,2.2-0.9c0.2-0.3,0.4-0.6,0.6-0.9c0.1-0.4,0.1-0.8,0.3-1.1C4.2,12.8,3.5,12.5,3,12.6z M17.3,12.8
	c-0.3-0.1-0.6-0.5-0.9-0.6c-0.2-0.1-0.6-0.2-0.8-0.2c-0.3,0-0.4,0-0.6,0.1c-0.5,0.1-0.9,0.4-1.2,0.7c0.3,0,0.5,0.1,0.8,0.2
	c0.4,0.3,0.7,0.8,1,1.2c0.4,0,0.7,0.1,1,0c0.4-0.1,0.7-0.4,1-0.5C17.6,13.4,17.4,13.2,17.3,12.8L17.3,12.8z M6.7,11.7
	c-0.5,0.4-0.9,1-1.7,1.2c-0.4,0.5-0.2,1.2-0.2,1.9c0.2,0,0.3,0.1,0.5,0.1c0.2-0.1,0.3-0.1,0.5-0.1c0.3-0.2,0.5-0.4,0.9-0.5
	c0.1-0.2,0.3-0.4,0.4-0.6c0.2-0.6,0.2-1.4,0-2L6.7,11.7L6.7,11.7z M19.6,13.5c0.1-0.1,0.3-0.2,0.4-0.3c0-0.1-0.1-0.5-0.2-0.6
	c-0.1-0.3-0.4-0.4-0.6-0.6c-0.1-0.1-0.2-0.3-0.3-0.3c-0.1,0-0.3,0-0.4-0.1c-0.1,0-0.3-0.2-0.4-0.2c-0.8-0.1-1.5,0.2-1.9,0.5
	c0.4,0,0.6,0.2,0.8,0.3c0.4,0.3,0.8,0.7,0.9,1.3C18.5,13.8,19.1,13.6,19.6,13.5z M9.4,11.7c-0.1-0.1-0.4-0.3-0.6-0.3
	c-0.3,0.1-0.7,0.2-1.2,0.3c0,0.4,0,0.6,0,0.9c0,0.3,0.2,0.5,0.3,0.7c0,0.1,0,0.2,0.1,0.3c0.1,0.2,0.4,0.5,0.5,0.7
	c0,0.1,0.1,0.2,0.2,0.2c0-0.3,0-0.5,0.1-0.7c0.1-0.4,0.6-0.9,0.9-1.1c0.1-0.1,0.2-0.1,0.2-0.2c0.1-0.2-0.1-0.4,0-0.6
	C9.8,11.9,9.6,11.8,9.4,11.7z M11.4,11.4c-0.3-0.1-0.5-0.3-0.8-0.3c-0.1,0-0.3,0.2-0.4,0.3c-0.1,0.2,0.1,0.6,0.1,0.9
	c0,0.1-0.1,0.2-0.1,0.3c0.4,0.2,0.6,0.6,0.9,0.9c0.3-0.1,0.5-0.3,0.8-0.4c0.1-0.1,0.3-0.2,0.3-0.3c0.1-0.1,0.2-0.4,0.3-0.6
	c0.2-0.4,0.4-0.6,0.5-1C12.9,11.3,12,11.5,11.4,11.4z M21.4,13.3c0.2,0,0.6-0.1,0.8-0.2c0.2-0.1,0.3-0.3,0.3-0.6
	c-0.1-0.4-0.4-0.6-0.7-0.9c-0.1-0.1-0.2-0.3-0.3-0.3c-0.2-0.1-0.6-0.3-0.8-0.3c-0.6-0.1-1,0.1-1.6,0.2c-0.1,0.1-0.3,0.2-0.4,0.3
	c0.2,0,0.4,0.2,0.6,0.3c0.2,0.1,0.4,0.2,0.5,0.3c0.3,0.3,0.4,0.7,0.5,1.1C20.6,13.3,21,13.3,21.4,13.3z M24.8,11.9
	c-0.2-0.3-0.6-0.7-0.9-0.9c-0.1-0.1-0.2-0.2-0.3-0.2c-0.1,0-0.3,0-0.4-0.1c-0.1,0-0.3-0.1-0.4-0.1c-0.6-0.1-1.1,0.3-1.6,0.5h0.2
	c0.1,0.2,0.3,0.2,0.5,0.3c0.2,0.1,0.5,0.5,0.6,0.7c0.1,0.2,0.2,0.4,0.2,0.8c0.8,0.1,1.7,0,2.3-0.4C25,12.3,24.8,12.1,24.8,11.9z
	 M5.6,10.6c-0.1,0-0.2,0-0.3-0.1c-0.1,0-0.3-0.2-0.4-0.2c-0.3-0.1-0.6,0-0.8,0.2c-0.3,0.2-1,0.8-1.2,1.1c-0.2,0.3-0.3,0.7-0.5,0.9
	c0.4-0.1,0.7-0.2,1.2-0.2c0.1,0,0.3,0.1,0.4,0.1c0.3,0.1,0.6,0.1,0.8,0.3l1-0.5C6,12,6.2,11.7,6.5,11.4C6.1,11.3,5.9,10.7,5.6,10.6z
	 M13.7,10.7c-0.1,0.1-0.2,0.1-0.2,0.2c-0.1,0.1-0.3,0.7-0.2,0.8c0,0.3,0.4,0.6,0.5,0.8c0.3-0.6,1.1-0.6,1.7-0.9
	c0-0.5-0.1-0.8-0.2-1.2c-0.3-0.3-0.7-0.7-1.2-0.9C13.9,9.9,13.9,10.4,13.7,10.7L13.7,10.7z M2.5,11.7c0.1-0.2,0.6-0.6,0.6-0.9
	c0-0.4-0.7-0.9-0.8-1.4C2,9.6,1.7,9.7,1.5,9.9c-0.2,0.2-0.3,0.4-0.4,0.7C1,10.7,0.8,10.9,0.8,11c-0.1,0.3,0.1,0.5,0.1,0.7
	c0.1,0.3,0.2,0.4,0.4,0.7c0.1,0.2,0.2,0.5,0.4,0.6C2.2,12.8,2.2,12.1,2.5,11.7L2.5,11.7z M8.5,10.2c0-0.1,0-0.2-0.1-0.3
	C8.4,9.7,8,9.5,7.9,9.3C7.8,9.2,7.6,9.1,7.4,9.1C7.3,9.1,7.3,9,7.2,9C7,9,6.8,9.1,6.6,9.2C6.3,9.2,6.1,9.2,5.9,9.3
	C5.4,9.4,5,9.9,4.7,10.1c0.8,0,1,0.5,1.6,0.7c0.1,0.2,0.3,0.4,0.5,0.6c0.8,0,1.5,0,2.1-0.3C8.9,10.7,8.6,10.5,8.5,10.2z M10.2,9.1
	C9.6,8.9,8.6,8.9,7.9,9c0.2,0.1,0.4,0.3,0.5,0.4c0.1,0.2,0.2,0.4,0.3,0.6c0.1,0.3,0.3,0.6,0.3,1c0.1,0.1,0.3,0.2,0.4,0.3
	c0.3-0.3,0.7-0.4,1.1-0.7c0-0.5,0.5-0.9,0.3-1.4C10.6,9.3,10.4,9.2,10.2,9.1L10.2,9.1z M13.3,8.4c-0.2,0.1-0.7,0.4-0.9,0.4
	c-0.2,0-0.5,0-0.8,0c-0.3,0.6-0.6,1.2-0.8,2c0.2,0,0.5,0.2,0.9,0.3c0.4,0,0.9,0,1.1-0.1c0.2-0.1,0.2-0.3,0.4-0.3
	c0-0.1,0.2-0.2,0.3-0.3c0.3-0.4,0.3-1.4,0.3-2.3c0-0.1,0.1-0.3-0.1-0.3C13.6,8,13.5,8.3,13.3,8.4z M19.1,9.4c-0.1,0.4-0.1,1.1,0,1.6
	c0.3-0.2,0.8-0.1,1.1-0.3c0.1,0.2,0.5,0.1,0.7,0.2c0.3-0.3,0.5-0.7,0.4-1.3c0-0.3-0.2-0.9-0.3-1.1C21,8,20.6,7.8,20.5,7.5
	C20.3,8.4,19.9,9.1,19.1,9.4z M7.3,6.7C6.5,7,6,7.8,6.1,9c0.5-0.3,1.7,0,2.3-0.3c0.2-0.2,0.4-0.5,0.5-0.8C8.3,7.5,7.7,7.2,7.3,6.7z
	 M9.5,5.7C9.2,6,9,6.4,9.1,7.1c0,0.2,0.1,0.5,0.2,0.8c0.2,0.5,0.6,0.7,1,1c0.2,0.1,0.6,0.4,0.8,0.3c0.1,0,0.3-0.2,0.3-0.3
	c0-0.1-0.1-0.4-0.1-0.6c0-0.2-0.1-0.4-0.1-0.6c0-0.2,0.1-0.6,0-0.9c-0.1-0.3-0.4-0.6-0.6-0.7C10.3,5.8,9.9,5.7,9.5,5.7
	C9.6,5.6,9.5,5.7,9.5,5.7z M18.4,6.1c-0.1,0.5-0.3,1-0.5,1.3c0.2,0.7,0.7,1.2,1.1,1.7c0.5-0.2,1-0.6,1.2-1.1c0.1-0.3,0.2-0.6,0.2-1
	c-0.1-0.2-0.2-0.3-0.4-0.5c-0.1-0.2-0.2-0.6-0.5-0.7c-0.1-0.1-0.2-0.1-0.3-0.1c-0.3-0.2-0.4-0.6-0.9-0.6C18.5,5.4,18.5,5.7,18.4,6.1
	L18.4,6.1z M11.5,6.5c0,0.8,0,1.5,0.3,2.1c0.3,0,0.6-0.1,0.8-0.2c0.2-0.1,0.5-0.2,0.7-0.3c0.2-0.1,0.2-0.3,0.4-0.5
	c0.1-0.1,0.1-0.1,0.2-0.2c0-0.2,0-0.4,0-0.6c0-0.2,0-0.4,0-0.6c0-0.2-0.2-0.4-0.3-0.6c-0.2-0.4-0.3-0.8-0.6-1
	C12.8,5.6,12.1,6.1,11.5,6.5z M2.9,4.7C2.7,4.6,2.6,4.5,2.4,4.5c-0.5-0.1-1.2,0-1.5,0.2C0.8,4.8,0.8,4.9,0.7,5
	C0.7,5.1,0.5,5.3,0.5,5.4C0.3,5.6,0.3,5.8,0.2,6.1C0.1,6.3,0,6.4,0,6.5c-0.1,0.3,0,0.7,0,1C0.3,7.3,0.7,7,1,6.9
	c0.4-0.1,0.8-0.1,1.2-0.1c0.2-0.3,0.4-0.6,0.6-0.9C3,5.6,3.1,5.3,3.2,5C3.2,4.8,3,4.8,2.9,4.7z M15.7,4.4c0.2,0.4,0.2,0.9,0.3,1.3
	c0,0.1-0.1,0.2-0.1,0.3c0.3,0.2,0.6,0.5,0.9,0.7c0.3,0.2,0.6,0.2,1,0.3C18,6.7,18.3,6,18.2,5.2c0-0.2-0.2-0.6-0.4-0.7
	c-0.1-0.1-0.3-0.2-0.5-0.3C17,4.2,16.9,4,16.7,4c-0.4-0.1-1.1-0.2-1.5-0.2C15.3,4.1,15.5,4.2,15.7,4.4z M7.8,3.8
	C7.8,3.8,7.8,3.8,7.8,3.8C7.7,3.9,7.7,4,7.6,4.2C7.5,4.3,7.4,4.3,7.4,4.4c-0.3,0.5-0.2,1.4,0,2c0.4,0.6,0.9,1,1.6,1.2
	C8.7,7,9,5.7,9.4,5.4C9.1,4.7,8.6,4.1,7.8,3.8z M15.6,5.5c0-0.1,0-0.2,0-0.3c0-0.1-0.1-0.2-0.2-0.4c0-0.1,0-0.2-0.1-0.3
	C15.2,4.2,15,4.1,15,3.9c-0.5-0.4-1.6-0.3-2.2-0.1c0,0.1,0.1,0.2,0.1,0.4c0.2,0.3,0.5,0.6,0.7,0.9c0.1,0.3,0.2,0.6,0.3,0.9
	c0.6,0.1,1,0,1.7,0C15.7,5.8,15.6,5.7,15.6,5.5z M2.2,3C2.1,3.1,1.9,3.1,1.8,3.2C1.5,3.6,1.3,4.1,1.1,4.4c0.2,0,0.2-0.1,0.4-0.2
	c0.5-0.1,0.9,0,1.2,0.1C2.9,4.4,3,4.5,3.1,4.5c0.1,0,0.2,0.2,0.3,0.2c0.1,0,0.3-0.1,0.4-0.1C4,4.5,4.2,4.3,4.4,4.2
	c0.1-0.1,0.3,0,0.3-0.2C4.6,3.7,4.2,3.5,4.1,3.3c0-0.1,0-0.2-0.1-0.2C4,3,3.9,2.9,3.8,2.8C3.8,2.7,3.8,2.5,3.8,2.3
	C2.9,2.2,2.6,2.6,2.2,3z M10.7,2.9c0,0.1-0.1,0.3-0.1,0.5c-0.1,0.4-0.1,0.5-0.2,0.8c-0.1,0.2-0.1,0.3-0.2,0.4
	c0.3,0.6,0.6,1.4,1.2,1.7C11.7,6.1,11.8,6,12,5.7c0.2-0.3,0.5-0.7,0.6-1c0-0.3,0-0.4-0.1-0.6c-0.1-0.4-0.2-0.6-0.5-0.9
	c-0.2-0.2-0.4-0.4-0.5-0.5c-0.3-0.2-0.7-0.2-1-0.5C10.5,2.4,10.7,2.6,10.7,2.9z M7.4,3C7.4,2.9,7.3,2.7,7.3,2.7
	C7.2,2.6,7.1,2.5,6.9,2.4C6.7,2.3,6.5,2.1,6.3,2C6.1,2,5.9,2.3,5.8,2.5c0,0.1,0,0.1-0.1,0.2C5.7,2.8,5.6,2.9,5.6,3
	c-0.1,0.3,0,0.9,0,1.2C5.7,4.7,6,5,6.2,5.3c0.3,0.2,0.6,0.4,0.9,0.6C6.8,5,7.2,4,7.7,3.6C7.6,3.3,7.5,3.2,7.4,3L7.4,3z M7.8,1.7
	C7.9,1.8,8,2,8,2.2c0.1,0.4,0.2,0.7,0.2,1.2c0.1,0.1,0.3,0.3,0.4,0.4C8.7,3.9,8.9,4,9.1,4.1c0.3,0.1,0.7,0.1,1,0.3
	c0.4-0.3,0.3-1.1,0.4-1.7c-0.1-0.3-0.2-0.6-0.4-0.9C9.9,1.8,9.7,1.6,9.5,1.5c-0.1,0-0.3,0-0.4-0.1C8.9,1.4,8.7,1.2,8.5,1.2
	c-0.3,0-0.7,0-1.1,0C7.5,1.4,7.7,1.5,7.8,1.7z M6.4,1.7c0.4,0.2,0.8,0.6,1.1,0.9c0.2,0.2,0.3,0.5,0.5,0.7c0.1-0.5-0.2-0.9-0.3-1.2
	c0-0.1,0-0.2-0.1-0.3C7.5,1.6,7.3,1.5,7.3,1.3C6.9,1.2,6.7,1,6.2,1C6.2,1.2,6.4,1.4,6.4,1.7z M4.7,0c0.8,0.3,1,1,1.4,1.7
	C5.9,2,5.5,2.3,5.4,2.7C5.3,3.1,5.3,3.4,5.3,3.9C4.8,3.7,4.4,3.3,4.2,2.8C4.1,2.7,4,2.5,4,2.5C4,2.1,4,1.6,4,1.3
	C4,1.2,4.1,1.1,4.1,1c0-0.1,0-0.2,0-0.3C4.2,0.4,4.6,0.4,4.7,0L4.7,0z M0,9.3V8.4C0.1,8.3,0.1,8.2,0.1,8c0.5-0.6,1.1-0.9,2.2-0.9
	c0.1,0.5,0.1,1.5,0,2.1C2.1,9.2,2,9.3,1.9,9.4C1.8,9.4,1.7,9.5,1.6,9.5c-0.5,0.3-0.8,0.9-1,1.4C0.2,10.6,0.2,9.9,0,9.3z"/>
</svg>
