<?xml version="1.0" encoding="utf-8"?>
<!-- Generator: Adobe Illustrator 21.0.2, SVG Export Plug-In . SVG Version: 6.00 Build 0)  -->
<svg version="1.1" id="Layer_1" xmlns="http://www.w3.org/2000/svg" xmlns:xlink="http://www.w3.org/1999/xlink" x="0px" y="0px"
	 width="25px" height="30px" viewBox="0 0 25 30" style="enable-background:new 0 0 25 30;" xml:space="preserve">
<title>icon_slim</title>
<desc>Created with Sketch.</desc>
<g id="Page-1">
	<g id="Карточка-товара" transform="translate(-1175.000000, -1037.000000)">
		<g id="icon_slim" transform="translate(1175.000000, 1037.000000)">
			<g id="Group">
				<g id="Layer_5_" transform="translate(1.041667, 0.000000)">
					<g id="Layer">
						<path id="Shape" d="M12.8,1l0.8,1.9l0.2,0.4l0.4,0.2l7.5,3.2l-3.9,12.9l-0.1,0.3l0.1,0.3L20,29H2.9l2.3-8.9l0.1-0.3l-0.1-0.3
							L1.3,6.7l7.5-3.2l0.4-0.2l0.2-0.4L10.1,1H12.8L12.8,1z M13.5,0H9.4l-1,2.5L0,6.1l4.2,13.7L1.6,30h19.8l-2.6-10.2l4.2-13.7
							l-8.3-3.6L13.5,0L13.5,0z"/>
					</g>
				</g>
				<g>
					<path d="M25,14.2h-1l0,0c-1.3,3.6-1.3,7.6,0,11.2l0,0h1l0,0C23.7,21.8,23.7,17.8,25,14.2L25,14.2z"/>
				</g>
				<g>
					<path d="M1,14.2H0l0,0c1.3,3.6,1.3,7.6,0,11.2l0,0h1l0,0C2.4,21.8,2.4,17.8,1,14.2L1,14.2z"/>
				</g>
			</g>
		</g>
	</g>
</g>
</svg>
