<?xml version="1.0" encoding="utf-8"?>
<!-- Generator: Adobe Illustrator 21.0.2, SVG Export Plug-In . SVG Version: 6.00 Build 0)  -->
<svg version="1.1" id="Layer_1" xmlns="http://www.w3.org/2000/svg" xmlns:xlink="http://www.w3.org/1999/xlink" x="0px" y="0px"
	 width="40px" height="40px" viewBox="0 0 40 40" style="enable-background:new 0 0 40 40;" xml:space="preserve">
<style type="text/css">
	.st0{fill:#181818;stroke:#181818;stroke-width:0.1;stroke-miterlimit:10;}
	.st1{fill:#181818;stroke:#181818;stroke-width:0.1;stroke-linecap:round;stroke-linejoin:round;}
	.st2{fill:none;stroke:#181818;stroke-linecap:round;stroke-miterlimit:10;}
	.st3{fill:none;stroke:#181818;stroke-width:1.5;stroke-linecap:round;stroke-miterlimit:10;}
</style>
<title>icon_favourite</title>
<desc>Created with Sketch.</desc>
<g id="Page-1">
	<g id="RR:-Главная-страница" transform="translate(-1245.000000, -11.000000)">
		<g id="subheader">
			<g id="icon_favourite" transform="translate(1235.000000, 0.000000)">
				<g id="Shape">
					<g>
						<path class="st0" d="M34.6,24.5c0.4-0.3,0.8-0.6,0.9-0.7c0,0,0,0,0,0c-1.5-0.4-3.2-0.1-4.3,1.1l-0.9,0.9l-0.9-1
							c-1.1-0.8-2.2-1.2-3.3-1.2c-1.1,0-2.2,0.5-3.2,1.3c-1.8,1.8-1.8,4.7,0,6.4l0.7,0.7c0.3-0.2,0.5-0.4,0.8-0.6l-0.8-0.8
							c-1.4-1.4-1.4-3.7,0-5.1c0.6-0.7,1.6-1,2.5-1c0.9,0,1.8,0.4,2.5,1l1.3,1.3c0.1,0.1,0.2,0.1,0.3,0.1c0.1,0,0.3-0.1,0.3-0.1
							l1.3-1.3C32.6,24.7,33.6,24.4,34.6,24.5z"/>
						<path class="st0" d="M37.8,28.5c-0.1,0.8-0.4,1.5-1,2.1c-2.2,2.2-4.4,4.5-6.6,6.7l-2.1-2.1c-0.1,0-0.1,0.1-0.2,0.1
							c-0.1,0-0.3,0.2-0.6,0.5l2.6,2.6c0.1,0.1,0.2,0.1,0.3,0.1c0.1,0,0.3-0.1,0.3-0.1c2.3-2.3,4.7-4.7,7-7.1c1-1,1.4-2.3,1.3-3.5
							C38.6,28,38.1,28.3,37.8,28.5z"/>
					</g>
					<path class="st1" d="M35.5,23.8c-1.5-0.3-3,0-4.1,1.2l-0.9,0.9l-0.9-1c-1.2-0.9-2.3-1.3-3.5-1.3c-1.2,0-2.3,0.5-3.2,1.3
						c-1.8,1.8-1.8,4.7,0,6.4l0.7,0.7c0.3-0.2,0.6-0.4,0.9-0.6l-0.9-0.9c-1.4-1.4-1.4-3.6,0-5c0.6-0.6,1.6-1,2.5-1
						c0.9,0,1.8,0.4,2.5,1l1.3,1.3c0.1,0.1,0.2,0.2,0.4,0.2c0.1,0,0.3-0.1,0.4-0.2l1.3-1.3c0.7-0.7,1.7-1.1,2.6-1
						C35,24.2,35.3,23.9,35.5,23.8z"/>
					<path class="st1" d="M39,27.7c-0.1,0.1-0.6,0.5-1.1,0.8c-0.1,0.7-0.4,1.5-1,2c-1.6,1.6-1.6,1.6-3.2,3.2
						c-0.1,0.1-0.1,0.1-0.2,0.2c-1.7,1.7-1.7,1.7-3.4,3.3l-2-2.1c-0.1,0.1-0.1,0.1-0.2,0.2c-0.1,0-0.3,0.2-0.6,0.5l2.6,2.6
						c0.1,0.1,0.2,0.2,0.4,0.2s0.3-0.1,0.4-0.2c0.9-0.9,1.8-1.8,3.5-3.5c1.8-1.8,2.5-2.5,3.5-3.5C38.7,30.4,39.2,29,39,27.7
						C39,27.7,39,27.7,39,27.7z"/>
				</g>
			</g>
		</g>
	</g>
</g>
<path class="st2" d="M25.4,16.2"/>
<path class="st2" d="M18,21.3"/>
<path class="st2" d="M14.4,23.8"/>
<path class="st2" d="M9.7,27"/>
<line class="st3" x1="11.5" y1="25.9" x2="30.6" y2="12.4"/>
</svg>
