<?xml version="1.0" encoding="UTF-8"?>
<svg width="20px" height="20px" viewBox="0 0 20 20" version="1.1" xmlns="http://www.w3.org/2000/svg" xmlns:xlink="http://www.w3.org/1999/xlink">
    <!-- Generator: Sketch 44.1 (41455) - http://www.bohemiancoding.com/sketch -->
    <title>icon_info</title>
    <desc>Created with Sketch.</desc>
    <defs></defs>
    <g id="Page-1" stroke="none" stroke-width="1" fill="none" fill-rule="evenodd">
        <g id="Фильтр---Паттерн---Информация" transform="translate(-215.000000, -1137.000000)" fill-rule="nonzero" fill="#000000">
            <g id="icon_info" transform="translate(215.000000, 1137.000000)">
                <path d="M10,20 C4.47619048,20 0,15.5238095 0,10 C0,4.47619048 4.47619048,0 10,0 C15.5238095,0 20,4.47619048 20,10 C20,15.5238095 15.5238095,20 10,20 Z M10,0.952380952 C5,0.952380952 0.952380952,5 0.952380952,10 C0.952380952,15 5,19.047619 10,19.047619 C15,19.047619 19.047619,15 19.047619,10 C19.047619,5 15,0.952380952 10,0.952380952 Z" id="Shape"></path>
                <g id="Group" transform="translate(9.285714, 5.476190)">
                    <path d="M0.714285714,9.04761905 C0.452380952,9.04761905 0.238095238,8.83333333 0.238095238,8.57142857 L0.238095238,3.0952381 C0.238095238,2.83333333 0.452380952,2.61904762 0.714285714,2.61904762 C0.976190476,2.61904762 1.19047619,2.83333333 1.19047619,3.0952381 L1.19047619,8.57142857 C1.19047619,8.83333333 0.976190476,9.04761905 0.714285714,9.04761905 Z" id="Shape"></path>
                    <g>
                        <circle id="Oval" cx="0.714285714" cy="0.714285714" r="1"></circle>
                        <path d="M0.714285714,1.42857143 C0.30952381,1.42857143 0,1.11904762 0,0.714285714 C0,0.30952381 0.30952381,0 0.714285714,0 C1.11904762,0 1.42857143,0.30952381 1.42857143,0.714285714 C1.42857143,1.11904762 1.11904762,1.42857143 0.714285714,1.42857143 Z M0.714285714,0.476190476 C0.571428571,0.476190476 0.476190476,0.571428571 0.476190476,0.714285714 C0.476190476,0.857142857 0.571428571,0.952380952 0.714285714,0.952380952 C0.857142857,0.952380952 0.952380952,0.857142857 0.952380952,0.714285714 C0.952380952,0.571428571 0.857142857,0.476190476 0.714285714,0.476190476 Z" id="Shape"></path>
                    </g>
                </g>
            </g>
        </g>
    </g>
</svg>