<?xml version="1.0" encoding="utf-8"?>
<!-- Generator: Adobe Illustrator 21.0.2, SVG Export Plug-In . SVG Version: 6.00 Build 0)  -->
<svg version="1.1" id="Layer_1" xmlns="http://www.w3.org/2000/svg" xmlns:xlink="http://www.w3.org/1999/xlink" x="0px" y="0px"
	 width="17.6px" height="15.1px" viewBox="0 0 17.6 15.1" style="enable-background:new 0 0 17.6 15.1;" xml:space="preserve">
<style type="text/css">
	.st0{fill:#181818;stroke:#181818;stroke-width:0.1;stroke-miterlimit:10;}
	.st1{fill:#181818;stroke:#181818;stroke-width:0.1;stroke-linecap:round;stroke-linejoin:round;}
</style>
<title>icon_favourite</title>
<desc>Created with Sketch.</desc>
<g id="Page-1">
	<g id="RR:-Главная-страница" transform="translate(-1245.000000, -11.000000)">
		<g id="subheader">
			<g id="icon_favourite" transform="translate(1235.000000, 0.000000)">
				<g id="Shape">
					<g>
						<path id="path-1" class="st0" d="M14.7,11.2c-1.1,0-2.1,0.5-3.1,1.3c-1.8,1.8-1.8,4.6,0,6.3l6.8,6.9c0.1,0.1,0.2,0.1,0.3,0.1
							c0.1,0,0.3-0.1,0.3-0.1c2.2-2.2,4.6-4.6,6.8-6.9c1.8-1.8,1.8-4.6,0-6.3c-1.8-1.7-4.5-1.8-6.2,0l-0.9,0.9l-0.9-1
							C16.8,11.6,15.8,11.2,14.7,11.2L14.7,11.2z M14.7,12.1c0.9,0,1.8,0.4,2.4,1l1.3,1.3c0.1,0.1,0.2,0.1,0.3,0.1
							c0.1,0,0.3-0.1,0.3-0.1l1.3-1.3c1.4-1.4,3.5-1.4,4.9,0c1.4,1.4,1.4,3.6,0,5c-2.1,2.1-4.3,4.4-6.4,6.5l-6.4-6.5
							c-1.4-1.4-1.4-3.6,0-5C12.8,12.4,13.8,12.1,14.7,12.1L14.7,12.1z"/>
					</g>
					<path class="st1" d="M14.7,11.2c-1.2,0-2.2,0.5-3.1,1.3c-1.8,1.8-1.8,4.6,0,6.3l6.8,6.9c0.1,0.1,0.2,0.2,0.4,0.2
						c0.2,0,0.3-0.1,0.4-0.2c0.9-0.9,1.8-1.8,3.4-3.4l0,0c1.8-1.8,2.4-2.4,3.4-3.4c1.8-1.8,1.8-4.6,0-6.3c-1.8-1.7-4.6-1.8-6.2,0
						L19,13.5l-0.9-1C16.9,11.6,15.9,11.2,14.7,11.2L14.7,11.2z M14.7,12.1c0.9,0,1.8,0.4,2.4,1l1.3,1.3c0.1,0.1,0.2,0.2,0.4,0.2
						c0.1,0,0.3-0.1,0.4-0.2l1.3-1.3c1.4-1.4,3.4-1.4,4.8,0c1.4,1.4,1.4,3.5,0,4.9c-1.6,1.6-1.6,1.6-3.1,3.1
						c-0.1,0.1-0.1,0.1-0.2,0.2c-1.7,1.7-1.7,1.7-3.3,3.2L12.3,18c-1.4-1.4-1.4-3.5,0-4.9C12.8,12.5,13.8,12.1,14.7,12.1L14.7,12.1z
						"/>
				</g>
			</g>
		</g>
	</g>
</g>
</svg>
