<?xml version="1.0" encoding="UTF-8"?>
<svg width="24px" height="28px" viewBox="0 0 24 28" version="1.1" xmlns="http://www.w3.org/2000/svg" xmlns:xlink="http://www.w3.org/1999/xlink">
    <!-- Generator: Sketch 44.1 (41455) - http://www.bohemiancoding.com/sketch -->
    <title>Group</title>
    <desc>Created with Sketch.</desc>
    <defs></defs>
    <g id="Личный-кабинет" stroke="none" stroke-width="1" fill="none" fill-rule="evenodd" stroke-linecap="round" stroke-linejoin="round">
        <g id="Личный-кабинет:-Личный-профиль-(Изменение-пароля)" transform="translate(-1288.000000, -122.000000)">
            <g id="Group" transform="translate(1288.000000, 123.000000)">
                <polyline id="Path-2" stroke="#1A171C" points="6.63157895 8.12896107 6.63157895 0.333333333 23.3333333 0.333333333 23.3333333 25.6666667 6.63157895 25.6666667 6.63157895 17.8156453"></polyline>
                <path d="M8.07138536,10.4261084 C8.07138536,10.530104 8.10429522,10.6514322 8.18656987,10.7380952 L9.9307925,12.5753512 L1.07803993,12.5753512 C0.847670901,12.5753512 0.666666667,12.7660099 0.666666667,13.0086663 C0.666666667,13.2513228 0.847670901,13.4419814 1.07803993,13.4419814 L9.9307925,13.4419814 L8.18656987,15.2619048 C8.10429522,15.3485678 8.07138536,15.4525634 8.07138536,15.5738916 C8.07138536,15.6952199 8.10429522,15.7992155 8.18656987,15.8858785 C8.35111918,16.0592045 8.61439806,16.0592045 8.76249244,15.8858785 L11.1978221,13.3206532 C11.2142771,13.3033206 11.230732,13.2686554 11.2471869,13.2513228 C11.3294616,13.1299945 11.3294616,12.9740011 11.2800968,12.8526729 C11.2636419,12.8006751 11.230732,12.7486772 11.1978221,12.714012 L11.1978221,12.714012 L8.76249244,10.1141215 C8.59794313,9.94079548 8.33466425,9.94079548 8.18656987,10.1141215 C8.10429522,10.2007845 8.07138536,10.3047801 8.07138536,10.4261084 Z" id="Shape" fill="#1A171C" fill-rule="nonzero"></path>
            </g>
        </g>
    </g>
</svg>