<?xml version="1.0" encoding="utf-8"?>
<!-- Generator: Adobe Illustrator 21.0.2, SVG Export Plug-In . SVG Version: 6.00 Build 0)  -->
<svg version="1.1" id="Layer_1" xmlns="http://www.w3.org/2000/svg" xmlns:xlink="http://www.w3.org/1999/xlink" x="0px" y="0px"
	 viewBox="0 0 40 40" style="enable-background:new 0 0 40 40;" xml:space="preserve">
<style type="text/css">
	.st0{fill:#181818;stroke:#181818;stroke-width:0.1;stroke-miterlimit:10;}
	.st1{fill:#181818;stroke:#181818;stroke-width:0.1;stroke-linecap:round;stroke-linejoin:round;}
</style>
<title>icon_favourite</title>
<desc>Created with Sketch.</desc>
<g id="Page-1">
	<g id="RR:-Главная-страница" transform="translate(-1245.000000, -11.000000)">
		<g id="subheader">
			<g id="icon_favourite" transform="translate(1235.000000, 0.000000)">
				<g id="Shape">
					<g>
						<path id="path-1" class="st0" d="M26.1,23.6c-1.1,0-2.2,0.5-3.2,1.3c-1.8,1.8-1.8,4.7,0,6.4l7,7.1c0.1,0.1,0.2,0.1,0.3,0.1
							c0.1,0,0.3-0.1,0.3-0.1c2.3-2.3,4.7-4.7,7-7.1c1.8-1.8,1.8-4.7,0-6.4s-4.6-1.8-6.3,0l-0.9,0.9l-0.9-1
							C28.3,24,27.2,23.6,26.1,23.6L26.1,23.6z M26.1,24.5c0.9,0,1.8,0.4,2.5,1l1.3,1.3c0.1,0.1,0.2,0.1,0.3,0.1s0.3-0.1,0.3-0.1
							l1.3-1.3c1.4-1.4,3.6-1.4,5,0c1.4,1.4,1.4,3.7,0,5.1c-2.2,2.2-4.4,4.5-6.6,6.7l-6.6-6.7c-1.4-1.4-1.4-3.7,0-5.1
							C24.2,24.8,25.2,24.5,26.1,24.5L26.1,24.5z"/>
					</g>
					<path class="st1" d="M26.1,23.6c-1.2,0-2.3,0.5-3.2,1.3c-1.8,1.8-1.8,4.7,0,6.4l7,7.1c0.1,0.1,0.2,0.2,0.4,0.2
						c0.2,0,0.3-0.1,0.4-0.2c0.9-0.9,1.8-1.8,3.5-3.5l0,0c1.8-1.8,2.5-2.5,3.5-3.5c1.8-1.8,1.8-4.7,0-6.4s-4.7-1.8-6.3,0l-0.9,0.9
						l-0.9-1C28.4,24,27.3,23.6,26.1,23.6L26.1,23.6z M26.1,24.5c0.9,0,1.8,0.4,2.5,1l1.3,1.3c0.1,0.1,0.2,0.2,0.4,0.2
						c0.1,0,0.3-0.1,0.4-0.2l1.3-1.3c1.4-1.4,3.5-1.4,4.9,0c1.4,1.4,1.4,3.6,0,5c-1.6,1.6-1.6,1.6-3.2,3.2c-0.1,0.1-0.1,0.1-0.2,0.2
						c-1.7,1.7-1.7,1.7-3.4,3.3l-6.5-6.7c-1.4-1.4-1.4-3.6,0-5C24.2,24.9,25.2,24.5,26.1,24.5L26.1,24.5z"/>
				</g>
			</g>
		</g>
	</g>
</g>
</svg>
