<?xml version="1.0" encoding="utf-8"?>
<!-- Generator: Adobe Illustrator 21.0.2, SVG Export Plug-In . SVG Version: 6.00 Build 0)  -->
<svg version="1.1" id="Layer_1" xmlns="http://www.w3.org/2000/svg" xmlns:xlink="http://www.w3.org/1999/xlink" x="0px" y="0px"
	 width="38.044px" height="34.939px" viewBox="0 0 38.044 34.939" style="enable-background:new 0 0 38.044 34.939;"
	 xml:space="preserve">
<style type="text/css">
	.st0{fill:#FFFFFF;}
</style>
<path class="st0" d="M16.322,33.42c-0.608-0.304-0.76-0.456-1.215-0.911c-0.152-0.152-0.456-0.304-0.456-0.456
	c0-0.152,0-0.304-0.152-0.456c-0.152-0.152-0.304-0.152-0.608-0.304c-0.911-0.152-1.975,0.152-2.734,0.304
	c0.152,1.215,0.456,2.431,1.367,3.038c0.304-0.152,0.456,0.152,0.608,0.304c0.152,0,0.456,0,0.76,0c0.608,0,0.911,0,1.367-0.152
	c0.76-0.304,1.519-0.76,1.975-0.911C16.929,33.724,16.777,33.572,16.322,33.42z M7.663,32.812c0.152,0.304,0.304,0.608,0.456,0.76
	c0.304,0.304,1.063,0.76,1.519,0.911c0.304,0.152,0.608,0.152,1.063,0.152c0.608,0.152,1.215,0.152,1.671,0
	c0-0.152-0.304-0.152-0.456-0.304c-0.456-0.76-1.063-1.519-0.911-3.038c-0.76-0.456-1.367-0.911-2.127-1.215
	C8.726,31.141,8.422,32.356,7.663,32.812z M21.183,30.533c-1.519,0.152-2.734-0.152-3.342-0.911
	c-0.911,0.456-2.127,0.76-2.734,1.671c0.304,0.304,0.304,0.76,0.608,1.063c0.152,0.152,0.456,0.304,0.608,0.456
	c0.152,0.152,0.304,0.304,0.456,0.456c1.367,0.608,2.582-0.152,3.342-0.76C20.423,31.597,21.031,31.141,21.183,30.533L21.183,30.533
	L21.183,30.533z M6.144,30.382c-0.304,0-0.76-0.304-1.063-0.304c-0.152,0-0.456,0.304-0.456,0.456
	c-0.456,0.608-0.76,1.519-0.76,2.582c0.456,0.304,0.76,0.456,1.367,0.304c0.456-0.152,0.911-0.304,1.367-0.608
	c0.304-0.152,0.76-0.456,1.063-0.608c0.304-0.304,0.304-0.608,0.456-0.911c0.152-0.152,0.152-0.304,0.304-0.608
	c0.152-0.456,0.152-0.911,0.152-1.367l0,0C8.119,29.926,6.903,30.382,6.144,30.382z M22.55,27.191c-0.152,0-0.304,0.152-0.456,0.152
	c-0.911,0.152-1.975,0-2.734-0.152c-0.456,0.608-0.911,1.367-1.367,2.127c0.304,0.304,0.911,0.304,1.215,0.608
	c0.456,0,0.76,0.304,1.215,0.304c0.304,0,0.911-0.152,1.215-0.304c0.456-0.152,0.456-0.608,0.76-1.063
	c0.152-0.152,0.304-0.456,0.456-0.608c0.152-0.304,0.152-0.76,0.304-1.063C22.854,27.343,22.702,27.191,22.55,27.191z M4.321,27.647
	c-0.152,0.152-0.152,0.456-0.304,0.608c-0.152,0.304-0.304,0.456-0.304,0.608c-0.152,0.608,0.456,1.063,0.456,1.519
	c0.152-0.304,0.608-0.456,0.76-0.911c0-0.304,0-0.608,0-0.76C5.08,27.799,5.536,27.04,5.84,26.28l0,0
	C5.384,26.736,4.625,27.191,4.321,27.647z M5.992,29.926c0.456,0.152,0.911,0,1.215-0.152c0.608-0.152,1.063-0.456,1.367-0.76
	c0.304-0.152,0.608-0.608,0.76-0.911c0-0.152,0-0.304,0.152-0.456c0.152-0.152,0.304-0.304,0.304-0.456c0.152-0.456,0-0.911,0-1.367
	c-0.608,0.304-1.367,0.911-2.279,0.911c-0.304,0-0.76-0.152-1.215-0.152c-0.608,0.76-0.76,1.975-1.063,3.038
	C5.536,29.622,5.688,29.926,5.992,29.926L5.992,29.926z M20.879,23.546c0,0.456,0.152,0.911,0.304,1.367
	c0,0.152,0.152,0.304,0.304,0.456c0.152,0.152,0.152,0.456,0.152,0.608c0.152,0.152,0.608,0.608,0.911,0.76
	c0.152,0,0.608,0.304,0.608,0.304c0.152,0,0.608-0.152,0.911-0.152c1.215-0.304,2.279-0.456,2.886-1.215
	c-0.76-0.152-1.367-0.608-1.823-1.063c-0.456-0.304-0.76-0.76-0.911-1.215C23.006,23.242,21.79,23.242,20.879,23.546z M3.409,23.546
	c-0.608,0.304-1.063,0.76-1.215,1.671c-0.152,0.608,0.152,0.911,0.152,1.367c0.152,0.911,0.456,1.823,1.063,2.279
	c0-0.456,0.152-0.608,0.304-1.063c0.456-0.304,0.608-0.911,1.063-1.215c0.304-0.152,0.608-0.304,1.063-0.456
	c0-1.063,0.152-2.431-0.152-3.19C4.625,22.786,4.017,23.242,3.409,23.546L3.409,23.546z M17.081,24.001
	c0,0.304,0.152,0.608,0.152,0.911c0.304,1.215,1.063,1.519,2.279,1.823c0.608,0.152,1.215,0.304,1.975,0.152
	c0.152,0,0.456-0.152,0.608-0.152c0-0.152-0.304-0.152-0.456-0.152c-0.304-0.304-0.456-0.608-0.608-1.215
	c-0.152-0.608-0.456-1.063-0.456-1.823c-0.76-0.608-1.671-1.063-2.886-1.215C17.537,22.634,17.081,23.546,17.081,24.001z
	 M7.511,23.09c-0.76,0.608-1.215,1.823-0.911,3.038c0.152,0.152,0.304,0.304,0.608,0.304c0.304,0,0.608-0.152,0.76-0.152
	c0.152,0,0.304,0,0.304,0c0.304-0.152,1.367-0.76,1.519-0.911c0.152-0.152,0.152-0.304,0.152-0.456
	c0.152-0.152,0.304-0.304,0.456-0.456c0.304-0.608,0.456-1.671,0.152-2.431l0,0C9.79,22.634,9.03,23.242,7.511,23.09z
	 M12.372,21.723c-0.608,0-1.063,0-1.519,0.152c0.304,0.456,0.152,1.367,0.152,1.975c-0.152,0.304-0.304,0.608-0.304,0.911
	c0.304,0.152,0.608,0.456,1.063,0.608c1.063,0.152,2.127-0.304,2.734-0.608c-0.304-0.76-1.063-0.911-1.215-1.823
	C12.828,22.634,12.676,22.027,12.372,21.723z M28.17,22.179c-0.304-0.304-0.76-0.456-1.063-0.608
	c-0.456,0.152-0.911,0.456-1.519,0.608c-0.456,0.456-0.76,0.76-1.367,1.063c0.456,0.456,0.76,1.063,1.367,1.519
	c0.152,0.152,0.304,0.152,0.608,0.304c0.456,0.152,0.76,0.456,1.519,0.304c0.152,0,0.304-0.152,0.456-0.152
	c0.152,0,0.304-0.152,0.456-0.152c0.152-0.152,0.304-0.304,0.456-0.456c0.304-0.304,0.76-0.456,0.911-0.76
	c0.304-0.456,0.456-1.063,0.76-1.367C29.993,22.33,28.93,22.33,28.17,22.179z M30.601,20.356c-0.911,0.608-2.127,0.911-3.342,0.911
	c0.304,0,0.456,0.304,0.76,0.456c0.152,0.152,0.456,0.152,0.76,0.152c0.304,0,0.608,0.152,0.76,0.152
	c0.456,0,0.76-0.304,1.215-0.456c0.152-0.456,0.76-0.456,0.76-0.911C31.512,20.811,30.905,20.356,30.601,20.356z M17.841,21.723
	c0.608,0.304,1.519,0.456,2.279,0.76c0.456,0.152,0.456,0.456,1.063,0.456c0.608-0.152,1.367-0.456,1.671-0.76
	c0.152-0.152,0.304-0.304,0.456-0.456c0.152-0.304,0-0.456-0.152-0.608c-0.456-0.456-0.76-0.911-1.367-1.063
	c-0.152,0-0.456,0-0.608-0.152c-0.304-0.152-0.608-0.304-1.063-0.304c-1.215,0.152-2.127,0.911-2.582,1.671
	C17.537,21.419,17.689,21.571,17.841,21.723z M15.258,19.444c-0.152,0.152-0.304,0.304-0.608,0.456
	c-0.456,0.456-0.911,1.367-0.911,2.127c0,0.456,0.152,0.608,0.304,1.063c0.304,0.456,0.304,0.608,0.76,1.063
	c0.608,0.608,1.519,1.215,2.279,1.519c0-0.304-0.304-0.608-0.304-0.911c-0.152-0.76,0.152-1.519,0.304-2.127
	c0.152-0.152,0.456-0.304,0.456-0.456C16.777,21.115,16.322,20.052,15.258,19.444z M4.625,19.14c-0.152,0-0.304,0.152-0.456,0.304
	c-0.152,0-0.456,0-0.608,0.152c0,0-0.152,0.152-0.152,0.304c-0.152,0.304-0.456,0.456-0.608,0.76c0,0.152,0,0.456-0.152,0.608
	c0,0.152-0.304,0.304-0.304,0.608c-0.152,0.608,0.152,1.367,0,2.127c0.76-0.608,1.823-1.215,3.342-1.367
	c0.304-0.456,0.608-0.911,0.911-1.367c0.152-0.608,0.152-1.215,0.456-1.671C6.448,19.444,5.384,18.988,4.625,19.14z M26.348,19.444
	c-0.456-0.152-0.911-0.76-1.367-0.911c-0.304-0.152-0.911-0.304-1.215-0.304c-0.456,0-0.608,0-0.911,0.152
	c-0.76,0.152-1.367,0.608-1.823,1.063c0.456,0,0.76,0.152,1.215,0.304c0.608,0.456,1.063,1.215,1.519,1.823
	c0.608,0,1.063,0.152,1.519,0c0.608-0.152,1.063-0.608,1.519-0.76C26.803,20.356,26.499,20.052,26.348,19.444L26.348,19.444z
	 M10.245,17.773c-0.76,0.608-1.367,1.519-2.582,1.823c-0.608,0.76-0.304,1.823-0.304,2.886c0.304,0,0.456,0.152,0.76,0.152
	c0.304-0.152,0.456-0.152,0.76-0.152c0.456-0.304,0.76-0.608,1.367-0.76c0.152-0.304,0.456-0.608,0.608-0.911
	c0.304-0.911,0.304-2.127,0-3.038H10.245L10.245,17.773z M29.841,20.508c0.152-0.152,0.456-0.304,0.608-0.456
	c0-0.152-0.152-0.76-0.304-0.911c-0.152-0.456-0.608-0.608-0.911-0.911c-0.152-0.152-0.304-0.456-0.456-0.456
	c-0.152,0-0.456,0-0.608-0.152c-0.152,0-0.456-0.304-0.608-0.304c-1.215-0.152-2.279,0.304-2.886,0.76
	c0.608,0,0.911,0.304,1.215,0.456c0.608,0.456,1.215,1.063,1.367,1.975C28.17,20.963,29.082,20.659,29.841,20.508z M14.347,17.773
	c-0.152-0.152-0.608-0.456-0.911-0.456c-0.456,0.152-1.063,0.304-1.823,0.456c0,0.608,0,0.911,0,1.367
	c0,0.456,0.304,0.76,0.456,1.063c0,0.152,0,0.304,0.152,0.456c0.152,0.304,0.608,0.76,0.76,1.063c0,0.152,0.152,0.304,0.304,0.304
	c0-0.456,0-0.76,0.152-1.063c0.152-0.608,0.911-1.367,1.367-1.671c0.152-0.152,0.304-0.152,0.304-0.304
	c0.152-0.304-0.152-0.608,0-0.911C14.954,18.077,14.651,17.925,14.347,17.773z M17.385,17.317c-0.456-0.152-0.76-0.456-1.215-0.456
	c-0.152,0-0.456,0.304-0.608,0.456c-0.152,0.304,0.152,0.911,0.152,1.367c0,0.152-0.152,0.304-0.152,0.456
	c0.608,0.304,0.911,0.911,1.367,1.367c0.456-0.152,0.76-0.456,1.215-0.608c0.152-0.152,0.456-0.304,0.456-0.456
	c0.152-0.152,0.304-0.608,0.456-0.911c0.304-0.608,0.608-0.911,0.76-1.519C19.664,17.166,18.296,17.469,17.385,17.317z
	 M32.576,20.204c0.304,0,0.911-0.152,1.215-0.304c0.304-0.152,0.456-0.456,0.456-0.911c-0.152-0.608-0.608-0.911-1.063-1.367
	c-0.152-0.152-0.304-0.456-0.456-0.456c-0.304-0.152-0.911-0.456-1.215-0.456c-0.911-0.152-1.519,0.152-2.431,0.304
	c-0.152,0.152-0.456,0.304-0.608,0.456c0.304,0,0.608,0.304,0.911,0.456c0.304,0.152,0.608,0.304,0.76,0.456
	c0.456,0.456,0.608,1.063,0.76,1.671C31.361,20.204,31.968,20.204,32.576,20.204z M37.741,18.077
	c-0.304-0.456-0.911-1.063-1.367-1.367c-0.152-0.152-0.304-0.304-0.456-0.304c-0.152,0-0.456,0-0.608-0.152
	c-0.152,0-0.456-0.152-0.608-0.152c-0.911-0.152-1.671,0.456-2.431,0.76h0.304c0.152,0.304,0.456,0.304,0.76,0.456
	s0.76,0.76,0.911,1.063c0.152,0.304,0.304,0.608,0.304,1.215c1.215,0.152,2.582,0,3.494-0.608
	C38.044,18.685,37.741,18.381,37.741,18.077z M8.574,16.102c-0.152,0-0.304,0-0.456-0.152c-0.152,0-0.456-0.304-0.608-0.304
	c-0.456-0.152-0.911,0-1.215,0.304c-0.456,0.304-1.519,1.215-1.823,1.671c-0.304,0.456-0.456,1.063-0.76,1.367
	c0.608-0.152,1.063-0.304,1.823-0.304c0.152,0,0.456,0.152,0.608,0.152c0.456,0.152,0.911,0.152,1.215,0.456l1.519-0.76
	c0.304-0.304,0.608-0.76,1.063-1.215C9.334,17.166,9.03,16.254,8.574,16.102z M20.879,16.254c-0.152,0.152-0.304,0.152-0.304,0.304
	c-0.152,0.152-0.456,1.063-0.304,1.215c0,0.456,0.608,0.911,0.76,1.215c0.456-0.911,1.671-0.911,2.582-1.367
	c0-0.76-0.152-1.215-0.304-1.823c-0.456-0.456-1.063-1.063-1.823-1.367C21.183,15.039,21.183,15.798,20.879,16.254L20.879,16.254z
	 M3.865,17.773c0.152-0.304,0.911-0.911,0.911-1.367c0-0.608-1.063-1.367-1.215-2.127c-0.456,0.304-0.911,0.456-1.215,0.76
	c-0.304,0.304-0.456,0.608-0.608,1.063c-0.152,0.152-0.456,0.456-0.456,0.608c-0.152,0.456,0.152,0.76,0.152,1.063
	c0.152,0.456,0.304,0.608,0.608,1.063c0.152,0.304,0.304,0.76,0.608,0.911C3.409,19.444,3.409,18.381,3.865,17.773L3.865,17.773z
	 M12.98,15.495c0-0.152,0-0.304-0.152-0.456c0-0.304-0.608-0.608-0.76-0.911c-0.152-0.152-0.456-0.304-0.76-0.304
	c-0.152,0-0.152-0.152-0.304-0.152c-0.304,0-0.608,0.152-0.911,0.304c-0.456,0-0.76,0-1.063,0.152
	c-0.76,0.152-1.367,0.911-1.823,1.215c1.215,0,1.519,0.76,2.431,1.063c0.152,0.304,0.456,0.608,0.76,0.911
	c1.215,0,2.279,0,3.19-0.456C13.587,16.254,13.132,15.95,12.98,15.495z M15.562,13.824c-0.911-0.304-2.431-0.304-3.494-0.152
	c0.304,0.152,0.608,0.456,0.76,0.608c0.152,0.304,0.304,0.608,0.456,0.911c0.152,0.456,0.456,0.911,0.456,1.519
	c0.152,0.152,0.456,0.304,0.608,0.456c0.456-0.456,1.063-0.608,1.671-1.063c0-0.76,0.76-1.367,0.456-2.127
	C16.17,14.127,15.866,13.976,15.562,13.824L15.562,13.824z M20.271,12.76c-0.304,0.152-1.063,0.608-1.367,0.608
	c-0.304,0-0.76,0-1.215,0c-0.456,0.911-0.911,1.823-1.215,3.038c0.304,0,0.76,0.304,1.367,0.456c0.608,0,1.367,0,1.671-0.152
	s0.304-0.456,0.608-0.456c0-0.152,0.304-0.304,0.456-0.456c0.456-0.608,0.456-2.127,0.456-3.494c0-0.152,0.152-0.456-0.152-0.456
	C20.727,12.153,20.575,12.608,20.271,12.76z M29.082,14.279c-0.152,0.608-0.152,1.671,0,2.431c0.456-0.304,1.215-0.152,1.671-0.456
	c0.152,0.304,0.76,0.152,1.063,0.304c0.456-0.456,0.76-1.063,0.608-1.975c0-0.456-0.304-1.367-0.456-1.671
	c0-0.76-0.608-1.063-0.76-1.519C30.905,12.76,30.297,13.824,29.082,14.279z M11.157,10.178c-1.215,0.456-1.975,1.671-1.823,3.494
	c0.76-0.456,2.582,0,3.494-0.456c0.304-0.304,0.608-0.76,0.76-1.215C12.676,11.393,11.764,10.937,11.157,10.178z M14.499,8.659
	c-0.456,0.456-0.76,1.063-0.608,2.127c0,0.304,0.152,0.76,0.304,1.215c0.304,0.76,0.911,1.063,1.519,1.519
	c0.304,0.152,0.911,0.608,1.215,0.456c0.152,0,0.456-0.304,0.456-0.456c0-0.152-0.152-0.608-0.152-0.911
	c0-0.304-0.152-0.608-0.152-0.911s0.152-0.911,0-1.367c-0.152-0.456-0.608-0.911-0.911-1.063
	C15.714,8.811,15.106,8.659,14.499,8.659C14.651,8.507,14.499,8.659,14.499,8.659z M28.019,9.266
	c-0.152,0.76-0.456,1.519-0.76,1.975c0.304,1.063,1.063,1.823,1.671,2.582c0.76-0.304,1.519-0.911,1.823-1.671
	c0.152-0.456,0.304-0.911,0.304-1.519c-0.152-0.304-0.304-0.456-0.608-0.76c-0.152-0.304-0.304-0.911-0.76-1.063
	c-0.152-0.152-0.304-0.152-0.456-0.152c-0.456-0.304-0.608-0.911-1.367-0.911C28.17,8.203,28.17,8.659,28.019,9.266L28.019,9.266z
	 M17.537,9.874c0,1.215,0,2.279,0.456,3.19c0.456,0,0.911-0.152,1.215-0.304c0.304-0.152,0.76-0.304,1.063-0.456
	c0.304-0.152,0.304-0.456,0.608-0.76c0.152-0.152,0.152-0.152,0.304-0.304c0-0.304,0-0.608,0-0.911s0-0.608,0-0.911
	c0-0.304-0.304-0.608-0.456-0.911c-0.304-0.608-0.456-1.215-0.911-1.519C19.512,8.507,18.448,9.266,17.537,9.874z M4.473,7.14
	c-0.304-0.152-0.456-0.304-0.76-0.304c-0.76-0.152-1.823,0-2.279,0.304C1.283,7.292,1.283,7.443,1.131,7.595
	c0,0.152-0.304,0.456-0.304,0.608C0.523,8.507,0.523,8.811,0.371,9.266C0.219,9.57,0.068,9.722,0.068,9.874
	c-0.152,0.456,0,1.063,0,1.519c0.456-0.304,1.063-0.76,1.519-0.911c0.608-0.152,1.215-0.152,1.823-0.152
	c0.304-0.456,0.608-0.911,0.911-1.367s0.456-0.911,0.608-1.367C4.929,7.292,4.625,7.292,4.473,7.14z M23.917,6.684
	c0.304,0.608,0.304,1.367,0.456,1.975c0,0.152-0.152,0.304-0.152,0.456c0.456,0.304,0.911,0.76,1.367,1.063
	c0.456,0.304,0.911,0.304,1.519,0.456c0.304-0.456,0.76-1.519,0.608-2.734c0-0.304-0.304-0.911-0.608-1.063
	c-0.152-0.152-0.456-0.304-0.76-0.456c-0.456,0-0.608-0.304-0.911-0.304c-0.608-0.152-1.671-0.304-2.279-0.304
	C23.309,6.228,23.613,6.38,23.917,6.684z M11.916,5.772L11.916,5.772c-0.152,0.152-0.152,0.304-0.304,0.608
	c-0.152,0.152-0.304,0.152-0.304,0.304c-0.456,0.76-0.304,2.127,0,3.038c0.608,0.911,1.367,1.519,2.431,1.823
	c-0.456-0.911,0-2.886,0.608-3.342C13.891,7.14,13.132,6.228,11.916,5.772z M23.765,8.355c0-0.152,0-0.304,0-0.456
	c0-0.152-0.152-0.304-0.304-0.608c0-0.152,0-0.304-0.152-0.456c-0.152-0.456-0.456-0.608-0.456-0.911
	c-0.76-0.608-2.431-0.456-3.342-0.152c0,0.152,0.152,0.304,0.152,0.608c0.304,0.456,0.76,0.911,1.063,1.367
	c0.152,0.456,0.304,0.911,0.456,1.367c0.911,0.152,1.519,0,2.582,0C23.917,8.811,23.765,8.659,23.765,8.355z M3.409,4.557
	C3.258,4.709,2.954,4.709,2.802,4.861c-0.456,0.608-0.76,1.367-1.063,1.823c0.304,0,0.304-0.152,0.608-0.304
	c0.76-0.152,1.367,0,1.823,0.152c0.304,0.152,0.456,0.304,0.608,0.304S5.08,7.14,5.232,7.14c0.152,0,0.456-0.152,0.608-0.152
	C6.144,6.836,6.448,6.532,6.751,6.38c0.152-0.152,0.456,0,0.456-0.304c-0.152-0.456-0.76-0.76-0.911-1.063
	c0-0.152,0-0.304-0.152-0.304c0-0.152-0.152-0.304-0.304-0.456c0-0.152,0-0.456,0-0.76C4.473,3.342,4.017,3.95,3.409,4.557z
	 M16.322,4.405c0,0.152-0.152,0.456-0.152,0.76c-0.152,0.608-0.152,0.76-0.304,1.215c-0.152,0.304-0.152,0.456-0.304,0.608
	c0.456,0.911,0.911,2.127,1.823,2.582c0.456-0.304,0.608-0.456,0.911-0.911c0.304-0.456,0.76-1.063,0.911-1.519
	c0-0.456,0-0.608-0.152-0.911c-0.152-0.608-0.304-0.911-0.76-1.367c-0.304-0.304-0.608-0.608-0.76-0.76
	c-0.456-0.304-1.063-0.304-1.519-0.76C16.018,3.646,16.322,3.95,16.322,4.405z M11.309,4.557c0-0.152-0.152-0.456-0.152-0.456
	c-0.152-0.152-0.304-0.304-0.608-0.456C10.245,3.494,9.942,3.19,9.638,3.038c-0.304,0-0.608,0.456-0.76,0.76
	c0,0.152,0,0.152-0.152,0.304c0,0.152-0.152,0.304-0.152,0.456c-0.152,0.456,0,1.367,0,1.823c0.152,0.76,0.608,1.215,0.911,1.671
	c0.456,0.304,0.911,0.608,1.367,0.911c-0.456-1.367,0.152-2.886,0.911-3.494C11.613,5.013,11.461,4.861,11.309,4.557L11.309,4.557z
	 M11.916,2.582c0.152,0.152,0.304,0.456,0.304,0.76c0.152,0.608,0.304,1.063,0.304,1.823c0.152,0.152,0.456,0.456,0.608,0.608
	c0.152,0.152,0.456,0.304,0.76,0.456c0.456,0.152,1.063,0.152,1.519,0.456c0.608-0.456,0.456-1.671,0.608-2.582
	c-0.152-0.456-0.304-0.911-0.608-1.367c-0.304,0-0.608-0.304-0.911-0.456c-0.152,0-0.456,0-0.608-0.152
	c-0.304,0-0.608-0.304-0.911-0.304c-0.456,0-1.063,0-1.671,0C11.461,2.127,11.764,2.279,11.916,2.582z M9.79,2.582
	c0.608,0.304,1.215,0.911,1.671,1.367c0.304,0.304,0.456,0.76,0.76,1.063c0.152-0.76-0.304-1.367-0.456-1.823
	c0-0.152,0-0.304-0.152-0.456c-0.152-0.304-0.456-0.456-0.456-0.76c-0.608-0.152-0.911-0.456-1.671-0.456
	C9.486,1.823,9.79,2.127,9.79,2.582z M7.207,0c1.215,0.456,1.519,1.519,2.127,2.582C9.03,3.038,8.422,3.494,8.271,4.102
	C8.119,4.709,8.119,5.165,8.119,5.924c-0.76-0.304-1.367-0.911-1.671-1.671C6.296,4.102,6.144,3.798,6.144,3.798
	c0-0.608,0-1.367,0-1.823c0-0.152,0.152-0.304,0.152-0.456s0-0.304,0-0.456C6.448,0.608,7.055,0.608,7.207,0L7.207,0z M0.068,14.127
	V12.76c0.152-0.152,0.152-0.304,0.152-0.608c0.76-0.911,1.671-1.367,3.342-1.367c0.152,0.76,0.152,2.279,0,3.19
	c-0.304,0-0.456,0.152-0.608,0.304c-0.152,0-0.304,0.152-0.456,0.152c-0.76,0.456-1.215,1.367-1.519,2.127
	C0.371,16.102,0.371,15.039,0.068,14.127z"/>
</svg>
