<?xml version="1.0" encoding="utf-8"?>
<!-- Generator: Adobe Illustrator 21.0.2, SVG Export Plug-In . SVG Version: 6.00 Build 0)  -->
<svg version="1.1" id="Layer_1" xmlns="http://www.w3.org/2000/svg" xmlns:xlink="http://www.w3.org/1999/xlink" x="0px" y="0px"
	 viewBox="0 0 3.2 8.2" style="enable-background:new 0 0 3.2 8.2;" xml:space="preserve">
<style type="text/css">
	.st0{stroke:#1A171C;stroke-width:0.2;}
</style>
<path class="st0" d="M0.4,0.3l2.6,3.8c0,0,0,0,0,0c0,0,0,0,0,0l0,0L0.4,7.9C0.4,8,0.3,8,0.2,8C0.2,8,0.1,7.9,0.1,7.9c0,0,0,0,0,0
	l2.6-3.8L0.2,0.3c0,0,0,0,0,0c0,0,0-0.1,0.1-0.1C0.3,0.2,0.4,0.2,0.4,0.3L0.4,0.3z"/>
</svg>
