<?xml version="1.0" encoding="utf-8"?>
<!-- Generator: Adobe Illustrator 21.0.2, SVG Export Plug-In . SVG Version: 6.00 Build 0)  -->
<svg version="1.1" id="Layer_1" xmlns="http://www.w3.org/2000/svg" xmlns:xlink="http://www.w3.org/1999/xlink" x="0px" y="0px"
	 width="14.8px" height="18px" viewBox="0 0 14.8 18" style="enable-background:new 0 0 14.8 18;" xml:space="preserve">
<style type="text/css">
	.st0{fill:#1A171C;}
</style>
<title>icon_shopping_bag</title>
<desc>Created with Sketch.</desc>
<g id="Page-1">
	<g id="RR:-Главная-страница" transform="translate(-1292.000000, -10.000000)">
		<g id="subheader">
			<g id="icon_shopping_bag" transform="translate(1280.000000, 0.000000)">
				<g id="Shape" transform="translate(12.000000, 11.000000)">
					<g transform="translate(0.800000, 0.000000)">
						<path class="st0" d="M0.9,2.3C0,2.3-0.7,3-0.7,3.9v11.4c0,0.9,0.7,1.6,1.6,1.6h11.4c0.9,0,1.6-0.7,1.6-1.6V3.9
							c0-0.9-0.7-1.6-1.6-1.6H0.9z M12.8,15.3c0,0.3-0.2,0.5-0.5,0.5H0.9c-0.3,0-0.5-0.2-0.5-0.5V3.9c0-0.3,0.2-0.5,0.5-0.5h11.3
							c0.3,0,0.5,0.2,0.5,0.5L12.8,15.3L12.8,15.3z"/>
						<path class="st0" d="M10.5,3.3H2.8V2.8c0-2.3,2.1-3.6,3.9-3.6s3.9,1.4,3.9,3.6L10.5,3.3L10.5,3.3z M3.8,2.3h5.6
							C9.2,1,7.9,0.2,6.6,0.2C5.4,0.2,4,1,3.8,2.3z"/>
					</g>
				</g>
			</g>
		</g>
	</g>
</g>
</svg>
