<?xml version="1.0" encoding="UTF-8" standalone="no"?>
<svg width="17px" height="17px" viewBox="0 0 17 17" version="1.1" xmlns="http://www.w3.org/2000/svg" xmlns:xlink="http://www.w3.org/1999/xlink">
    <!-- Generator: Sketch 40.1 (33804) - http://www.bohemiancoding.com/sketch -->
    <title>icon_close</title>
    <desc>Created with Sketch.</desc>
    <defs></defs>
    <g id="Page-1" stroke="none" stroke-width="1" fill="none" fill-rule="evenodd">
        <g id="03-all-models-–-model-card-(vertical-photo-view)" transform="translate(-1322.000000, -22.000000)" stroke="#1A1A1A" fill="#1A1A1A">
            <path d="M1323.22414,23 C1323.20906,23 1323.19371,23 1323.18617,23.0075411 C1323.03454,23.0377053 1322.9664,23.2572042 1323.08005,23.3630485 L1330.19667,30.4785831 L1323.08005,37.5790356 C1322.98148,37.6547156 1322.97394,37.8136167 1323.05743,37.8968377 C1323.14092,37.9800588 1323.29982,37.9722484 1323.37577,37.8742145 L1330.49992,30.7659516 L1337.62408,37.8742145 C1337.70003,37.9722484 1337.85166,37.9800588 1337.94269,37.8968377 C1338.02618,37.8136167 1338.01837,37.654985 1337.91979,37.5790356 L1330.79564,30.4785831 L1337.91979,23.3630485 C1338.0488,23.2343117 1337.90471,22.9698357 1337.73046,23.0075411 C1337.68494,23.0150821 1337.64697,23.0377053 1337.62408,23.0681389 L1330.49992,30.1685914 L1323.37577,23.0681389 C1323.3378,23.0226232 1323.2772,23 1323.22414,23 L1323.22414,23 L1323.22414,23 Z" id="icon_close"></path>
        </g>
    </g>
</svg>