<?xml version="1.0" encoding="utf-8"?>
<!-- Generator: Adobe Illustrator 21.0.2, SVG Export Plug-In . SVG Version: 6.00 Build 0)  -->
<svg version="1.1" id="Layer_1" xmlns="http://www.w3.org/2000/svg" xmlns:xlink="http://www.w3.org/1999/xlink" x="0px" y="0px"
	 width="16.5px" height="16.4px" viewBox="0 0 16.5 16.4" style="enable-background:new 0 0 16.5 16.4;" xml:space="preserve">
<style type="text/css">
	.st0{fill:#1A171C;}
</style>
<g id="Page-1">
	<g id="RR:-Главная-страница" transform="translate(-51.000000, -11.000000)">
		<g id="subheader">
			<g id="icon_search" transform="translate(40.000000, 0.000000)">
				<g transform="translate(11.000000, 11.000000)">
					<path id="Shape" class="st0" d="M6.8,13.5c-3.7,0-6.7-3-6.7-6.7s3-6.7,6.7-6.7s6.7,3,6.7,6.7S10.6,13.5,6.8,13.5z M6.8,1.3
						c-3,0-5.4,2.5-5.4,5.4s2.5,5.4,5.4,5.4s5.4-2.5,5.4-5.4S9.9,1.3,6.8,1.3z"/>
					<path id="Rectangle-path" class="st0" d="M11.2,11.1L11.2,11.1c0.3-0.3,0.7-0.3,0.9,0l4,4c0.3,0.3,0.3,0.7,0,0.9l0,0
						c-0.3,0.3-0.7,0.3-0.9,0l-4-4C11,11.8,11,11.4,11.2,11.1z"/>
				</g>
			</g>
		</g>
	</g>
</g>
</svg>
