<?xml version="1.0" encoding="utf-8"?>
<!-- Generator: Adobe Illustrator 21.0.2, SVG Export Plug-In . SVG Version: 6.00 Build 0)  -->
<svg version="1.1" id="Layer_1" xmlns="http://www.w3.org/2000/svg" xmlns:xlink="http://www.w3.org/1999/xlink" x="0px" y="0px"
	 viewBox="0 0 40 40" style="enable-background:new 0 0 40 40;" xml:space="preserve">
<style type="text/css">
	.st0{fill:#1A171C;fill-opacity:0;}
	.st1{fill:#FFFFFF;}
	.st2{fill:#FFFFFF;stroke:#FFFFFF;stroke-width:0.1;}
</style>
<title>icon_shopping_bag</title>
<desc>Created with Sketch.</desc>
<g id="Page-1">
	<g id="RR:-Главная-страница" transform="translate(-1292.000000, -10.000000)">
		<g id="subheader">
			<g id="icon_shopping_bag" transform="translate(1280.000000, 0.000000)">
				<rect id="Rectangle-Copy-7" x="12" y="10" class="st0" width="40" height="40"/>
				<g id="Shape" transform="translate(12.000000, 11.000000)">
					<g transform="translate(0.800000, 0.000000)">
						<path class="st1" d="M13.6,13.2c-0.9,0-1.6,0.7-1.6,1.6v11.6c0,0.9,0.7,1.6,1.6,1.6h11.6c0.9,0,1.6-0.7,1.6-1.6V14.8
							c0-0.9-0.7-1.6-1.6-1.6H13.6z M25.7,26.4c0,0.3-0.2,0.5-0.5,0.5H13.6c-0.3,0-0.5-0.2-0.5-0.5V14.8c0-0.3,0.2-0.5,0.5-0.5h11.5
							c0.3,0,0.5,0.2,0.5,0.5V26.4z"/>
						<path class="st2" d="M23.4,14.2h-7.9v-0.5c0-2.3,2.1-3.7,4-3.7c1.9,0,4,1.4,4,3.7V14.2z M16.6,13.2h5.7
							c-0.3-1.3-1.6-2.1-2.9-2.1C18.2,11.1,16.8,11.9,16.6,13.2z"/>
					</g>
				</g>
			</g>
		</g>
	</g>
</g>
</svg>
