<?xml version="1.0" encoding="UTF-8"?>
<svg width="18px" height="11px" viewBox="0 0 18 11" version="1.1" xmlns="http://www.w3.org/2000/svg" xmlns:xlink="http://www.w3.org/1999/xlink">
    <!-- Generator: Sketch 44.1 (41455) - http://www.bohemiancoding.com/sketch -->
    <title>left_arrow_pass</title>
    <desc>Created with Sketch.</desc>
    <defs></defs>
    <g id="Page-1" stroke="none" stroke-width="1" fill="none" fill-rule="evenodd">
        <g id="Восстановаление-пароля" transform="translate(-51.000000, -35.000000)" stroke="#1A171C" fill-rule="nonzero" stroke-width="0.100000001" fill="#000000">
            <g id="left_arrow_pass" transform="translate(53.000000, 36.000000)">
                <path d="M6.93938307,12.7891517 C7.1867808,12.7891517 7.38756737,12.5883651 7.38756737,12.3409674 L7.38756737,-2.53045973 L11.2350054,1.31697834 C11.3224014,1.40437428 11.4371366,1.44807225 11.5518717,1.44807225 C11.6666069,1.44807225 11.7813421,1.40437428 11.868738,1.31697834 C12.043754,1.14196237 12.043754,0.858261717 11.868738,0.683021659 L7.31697834,-3.86873803 C7.14218647,-4.04375399 6.85803763,-4.04375399 6.68324575,-3.86873803 L2.13126197,0.683245751 C1.95624601,0.858261717 1.95624601,1.14196237 2.13126197,1.31720243 C2.30605385,1.4922184 2.59020269,1.4922184 2.76499457,1.31720243 L6.49119878,-2.40900178 L6.49119878,12.3409674 C6.49119878,12.5883651 6.69198534,12.7891517 6.93938307,12.7891517 Z" id="Shape" transform="translate(7.000000, 4.394576) scale(-1, 1) rotate(90.000000) translate(-7.000000, -4.394576) "></path>
            </g>
        </g>
    </g>
</svg>