<?xml version="1.0" encoding="UTF-8"?>
<svg width="500px" height="459px" viewBox="0 0 500 459" version="1.1" xmlns="http://www.w3.org/2000/svg" xmlns:xlink="http://www.w3.org/1999/xlink">
    <!-- Generator: Sketch 44.1 (41455) - http://www.bohemiancoding.com/sketch -->
    <title>Combined Shape</title>
    <desc>Created with Sketch.</desc>
    <defs></defs>
    <g id="Page-1" stroke="none" stroke-width="1" fill="none" fill-rule="evenodd">
        <g id="О-бренде" transform="translate(-430.000000, -2730.000000)" fill="#FAFAFA">
            <path d="M644.731239,3168.99956 C636.904513,3164.89665 634.724718,3162.21534 629.674071,3156.31568 C627.640386,3153.94239 624.564191,3151.77839 623.336082,3149.58675 C622.388345,3147.89267 622.593688,3145.50359 621.353732,3144.03854 C620.011105,3142.44319 616.389961,3141.21903 613.827123,3140.86757 C602.055443,3139.25642 587.55507,3142.59719 577.769689,3144.42948 C580.482585,3161.00698 584.182707,3176.5854 595.204096,3184.84651 C600.096787,3183.81979 600.523268,3187.68577 603.524435,3188.41237 C606.225484,3189.05999 610.174388,3188.41237 613.033393,3188.41237 C620.792988,3188.41237 625.815993,3188.33734 630.862691,3186.42607 C640.422985,3182.81282 649.94774,3176.5775 657.806057,3174.14893 C652.328928,3173.69481 649.319864,3171.40049 644.731239,3168.99956 L644.731239,3168.99956 Z M529.435114,3161.86389 C530.860668,3164.8927 532.574492,3168.96402 535.378214,3171.76774 C539.153365,3175.54684 550.320863,3181.54128 555.584751,3183.25905 C559.399391,3184.51085 564.596148,3185.0479 569.054459,3186.03513 C577.876309,3187.98194 584.925101,3188.70459 592.033127,3186.42607 C591.527667,3183.89877 588.3488,3184.04488 586.883757,3182.46532 C580.447045,3171.73615 572.920436,3162.09688 574.997559,3142.84992 C565.859797,3137.32541 557.977786,3130.54909 546.869522,3126.99903 C543.212837,3140.7807 540.567072,3155.56934 529.435114,3161.86389 L529.435114,3161.86389 Z M707.3332,3131.75351 C687.707151,3134.20183 671.29551,3130.01994 662.560536,3120.2622 C649.9122,3126.76999 634.511477,3130.5175 626.507051,3141.65735 C629.527962,3145.42066 631.218092,3151.2216 634.823441,3155.12706 C636.576754,3157.03043 639.897781,3158.2309 642.353999,3160.28433 C644.640414,3162.18375 646.09361,3164.78213 648.297098,3165.82464 C666.774016,3174.6149 681.649534,3163.06041 692.670923,3155.52985 C697.255599,3146.9015 706.618448,3140.94655 708.12298,3130.56883 C708.024258,3131.12958 707.471411,3131.2362 707.3332,3131.75351 L707.3332,3131.75351 Z M510.417197,3130.56883 C506.140535,3130.45432 500.971421,3126.42644 497.342379,3126.99903 C496.18535,3127.18068 492.157469,3131.01901 491.00044,3132.54723 C484.37813,3141.298 480.887299,3152.77352 480.701701,3167.01326 C485.60229,3169.62349 490.609499,3172.17448 498.530999,3170.98191 C505.275725,3169.95914 511.463656,3166.66181 516.360296,3163.84624 C521.110827,3161.1136 526.568211,3158.38886 529.830005,3155.12706 C533.632798,3151.32427 534.473915,3147.95191 536.566833,3142.84992 C537.546161,3140.45294 539.394248,3138.10729 540.132693,3135.71426 C541.886006,3130.03573 541.755692,3124.12817 541.716203,3117.09123 C541.69251,3116.85429 541.65697,3116.62131 541.321313,3116.70029 C536.381235,3123.21203 520.751476,3130.82946 510.417197,3130.56883 L510.417197,3130.56883 Z M725.162497,3087.37573 C723.448674,3087.43497 721.865163,3088.71046 720.00523,3088.96319 C708.434944,3090.55065 694.507163,3088.45378 683.955693,3087.37573 C677.289945,3095.90141 672.203758,3106.00666 666.521286,3115.50772 C670.825591,3119.25918 678.02839,3120.11214 681.973344,3124.22295 C688.481136,3124.25059 692.576149,3127.37417 698.219131,3127.39787 C701.907407,3127.41366 710.547607,3125.75907 713.27235,3124.22295 C718.433567,3121.33235 720.084208,3115.70911 723.575038,3110.35835 C725.431023,3107.52304 728.554605,3105.02733 729.518138,3102.82779 C731.595261,3098.1049 731.342531,3092.44612 734.272617,3088.96319 C730.817327,3089.84775 728.35716,3087.27701 725.162497,3087.37573 L725.162497,3087.37573 Z M485.851071,3094.11256 C484.314947,3096.3042 483.394853,3099.83452 481.890321,3102.82779 C480.354198,3105.88819 477.957213,3108.87356 477.530732,3111.54697 C476.176258,3120.00947 482.909138,3124.66522 484.267561,3132.54723 C486.020874,3129.02876 492.232498,3125.63665 493.37768,3121.45477 C494.266183,3118.21272 493.010432,3114.37438 493.37768,3111.15208 C494.85457,3098.2905 500.979319,3088.41824 505.263878,3079.05934 C505.177003,3078.75133 504.932171,3078.59732 504.474098,3078.6605 C499.119385,3082.44355 490.696375,3087.22172 485.851071,3094.11256 L485.851071,3094.11256 Z M507.641118,3124.22295 C513.600013,3125.29705 519.278536,3123.32655 523.093176,3122.24455 C531.318741,3119.91864 536.641863,3116.6687 542.111093,3111.94581 C545.558486,3108.96439 551.110644,3103.68075 552.413782,3100.84939 C553.219358,3099.09608 553.14038,3096.52139 553.997292,3094.5114 C555.01216,3092.13416 557.160363,3090.50721 557.563151,3088.5683 C558.901829,3082.17503 556.879991,3075.79755 557.168261,3069.94527 C549.333637,3074.45097 538.410971,3081.97758 527.452765,3081.83542 C522.654848,3081.76829 518.10966,3079.2252 512.395597,3080.24401 C503.980485,3090.05704 501.745406,3106.04615 498.132159,3120.66104 C501.62299,3120.6018 504.233215,3123.61482 507.641118,3124.22295 L507.641118,3124.22295 Z M704.557121,3040.22978 C705.232383,3046.34268 705.718098,3052.55825 707.72809,3057.66419 C708.494177,3059.62284 710.626585,3061.47883 711.68884,3063.60728 C712.956438,3066.14248 713.268401,3069.08441 714.464919,3071.13784 C716.162947,3074.05213 722.781309,3079.41869 725.948329,3081.04169 C727.662153,3081.91045 733.676333,3084.13763 734.667507,3084.20871 C737.305375,3084.40221 742.14673,3082.55807 745.763925,3081.83542 C761.144903,3078.73948 776.593012,3075.0591 784.593489,3066.37941 C773.978838,3064.75247 766.562798,3058.43422 759.632473,3052.90971 C753.622242,3048.12364 749.424558,3043.82328 746.952545,3037.06276 C731.480742,3036.77449 716.451217,3036.93244 704.557121,3040.22978 L704.557121,3040.22978 Z M474.359763,3039.43605 C465.399701,3044.17078 459.539529,3050.01516 458.117924,3060.44026 C457.012231,3068.49998 459.594814,3072.51601 460.890054,3079.05934 C463.42525,3091.86169 467.066139,3103.55044 474.359763,3109.96346 C474.809938,3104.86542 476.914703,3101.42198 477.530732,3096.49375 C483.54886,3092.56064 486.269654,3084.31928 492.18906,3080.24401 C496.197197,3077.49163 501.026705,3075.95156 505.662718,3073.51113 C504.778163,3059.86372 507.680607,3042.43327 503.680368,3031.91339 C489.551193,3030.48388 482.676153,3035.04487 474.359763,3039.43605 L474.359763,3039.43605 Z M654.240197,3045.77799 C654.192811,3049.1622 656.036948,3053.77057 657.012327,3057.66419 C660.917793,3073.22286 670.801897,3078.23797 686.332933,3081.43263 C694.04909,3083.02799 701.528312,3085.33415 711.68884,3084.20871 C714.247729,3083.92044 718.014983,3083.16225 718.820559,3081.43263 C718.42172,3079.06329 715.274444,3079.43449 713.27235,3078.6605 C708.446791,3074.78663 707.499054,3070.68767 704.95596,3063.60728 C702.325991,3056.29786 699.032606,3048.9529 699.798693,3039.04116 C689.018187,3031.73569 678.514105,3024.14195 661.371916,3023.19421 C659.219764,3027.81443 654.323124,3039.92176 654.240197,3045.77799 L654.240197,3045.77799 Z M527.847655,3033.4969 C518.374237,3040.82606 510.958197,3057.20611 515.566567,3073.51113 C518.129405,3074.81822 520.372382,3076.65841 522.698286,3077.08094 C527.365889,3077.91416 530.371004,3075.88048 533.395864,3075.48953 C535.058352,3075.28419 536.780074,3075.7857 538.150344,3075.48953 C543.039086,3074.45097 555.233298,3066.42285 557.961991,3062.80961 C559.047939,3061.36826 559.411238,3058.81726 560.734121,3056.86651 C562.633543,3054.07068 565.528089,3052.17521 566.282329,3050.53247 C570.381291,3041.61584 571.317181,3028.30804 567.470949,3018.04089 C567.226117,3018.06064 567.00103,3018.10407 567.07211,3018.43973 C557.78429,3027.24578 547.880441,3035.43186 527.847655,3033.4969 L527.847655,3033.4969 Z M591.638236,3016.06249 C584.336714,3015.89269 577.690711,3016.3784 572.620319,3018.43973 C575.759697,3024.93962 574.263063,3036.08343 574.602668,3045.37915 C572.72299,3048.78705 570.021941,3051.36963 569.44935,3056.07673 C573.726012,3057.94456 578.326484,3062.31204 583.317897,3063.21239 C598.209211,3065.88185 610.750927,3059.0542 619.770222,3054.89206 C615.659414,3045.52526 605.581813,3042.13315 604.318164,3029.93104 C597.841963,3027.55775 596.191322,3020.35495 591.638236,3016.06249 L591.638236,3016.06249 Z M800.440438,3021.6107 C796.807447,3017.71313 791.176311,3015.81371 786.57189,3012.89152 C780.790696,3014.90546 773.745853,3019.07945 766.760243,3021.21186 C761.456866,3026.20722 756.216672,3031.27367 749.724675,3035.08041 C755.276833,3041.07089 760.18137,3049.98357 767.159082,3054.89206 C768.924242,3056.13201 771.838532,3056.83097 774.290801,3058.05908 C779.325653,3060.59427 784.684314,3063.33481 793.308719,3061.62888 C794.876433,3061.31297 796.811396,3059.70182 798.856927,3058.84886 C801.024875,3057.95246 803.579816,3057.47859 805.194917,3056.47557 C807.185164,3055.23561 808.950324,3052.35686 811.138016,3050.53247 C815.383087,3046.99425 820.587741,3044.13129 823.419105,3040.22978 C827.833979,3034.16031 830.084853,3026.80351 833.326903,3021.21186 C824.493206,3024.09061 809.846725,3023.77075 800.440438,3021.6107 L800.440438,3021.6107 Z M832.928064,2998.62413 C822.435828,3005.31358 809.139871,3011.07503 789.742859,3009.7245 C793.502215,3009.53101 796.325681,3013.26272 800.045547,3014.87387 C802.726853,3016.03485 807.015361,3016.30732 810.743126,3017.24716 C814.451146,3018.187 818.202604,3019.98375 821.041865,3020.01929 C826.977067,3020.10617 831.739444,3016.86412 836.892762,3014.87387 C838.63028,3008.95052 846.255612,3008.91498 847.195451,3002.18999 C843.12808,3003.71822 835.250019,2997.14724 832.928064,2998.62413 L832.928064,2998.62413 Z M663.354266,3016.85622 C672.270889,3020.56424 684.164985,3022.05693 692.670923,3026.75612 C697.737365,3029.55984 698.005891,3033.5048 706.14458,3032.30828 C713.548773,3031.21443 724.076549,3025.67807 729.123247,3022.00164 C730.837071,3020.75379 733.925113,3017.23926 734.272617,3015.66365 C735.263792,3011.18954 733.388063,3010.22601 731.500487,3007.74215 C726.437993,3001.0764 722.05866,2996.64573 713.671189,2993.47871 C711.278154,2992.57442 708.525769,2992.75606 706.14458,2991.89125 C701.413794,2990.18533 699.139226,2987.59485 692.276032,2988.32934 C676.358004,2990.02342 665.060192,3001.17907 657.806057,3009.7245 C659.602808,3012.14913 661.221858,3014.7554 663.354266,3016.85622 L663.354266,3016.85622 Z M630.07291,2986.74189 C628.34724,2988.93353 625.124935,2989.78649 622.941191,2991.89125 C616.804596,2997.80671 609.945351,3010.26155 609.072644,3020.42208 C608.47241,3027.39979 610.502147,3029.24788 612.638503,3033.4969 C615.880553,3039.94151 617.424574,3042.23977 622.147462,3046.96661 C630.420414,3055.23561 642.626473,3062.38312 653.051578,3066.7743 C652.423702,3062.78986 649.995127,3059.08579 649.485718,3054.49716 C648.387923,3044.59332 651.400936,3033.99446 652.656687,3025.57145 C653.924285,3023.22185 657.841597,3021.57516 657.806057,3019.23346 C649.833222,3007.12612 643.206962,2993.68011 630.07291,2986.74189 L630.07291,2986.74189 Z M489.41693,2981.59252 C487.442479,2981.98346 485.807633,2984.04873 483.078941,2984.76348 C480.306811,2985.48613 477.75187,2984.80692 475.947222,2986.34699 C475.169288,2987.00646 474.588799,2989.36396 473.569982,2990.70658 C471.220385,2993.79463 466.789715,2997.23017 465.249643,3001.00532 C464.341395,3003.22066 464.61387,3006.41927 463.662184,3009.32171 C462.769732,3012.0583 460.510959,3014.15122 460.096325,3016.45738 C458.63523,3024.61581 461.174375,3034.07344 460.096325,3043.79564 C470.256852,3035.32919 484.034575,3027.06019 503.680368,3026.75612 C507.795125,3021.09734 511.507094,3015.03972 515.961457,3009.7245 C517.485734,3001.87013 518.670405,2993.68011 522.698286,2988.32934 C513.327539,2986.36279 500.987216,2979.29425 489.41693,2981.59252 L489.41693,2981.59252 Z M776.273151,2986.74189 C769.852234,2984.30146 764.461981,2977.08682 758.838743,2974.45685 C755.387402,2972.84964 747.706785,2971.38855 742.592956,2970.89494 C736.543236,2970.3105 733.763208,2971.74 729.913028,2972.87334 C719.740653,2975.87055 712.545752,2981.36348 706.535521,2987.13678 C712.225891,2987.52377 715.831239,2989.99183 721.596638,2990.30774 C729.980159,2996.84713 735.84428,3005.90591 741.803175,3014.87387 C749.558821,3013.97747 755.786241,3016.10988 762.009712,3014.87387 C769.101942,3013.46411 776.158632,3006.00463 783.00603,3004.56723 C781.556783,2997.82646 777.611829,2993.58533 776.273151,2986.74189 L776.273151,2986.74189 Z M564.29998,2964.15416 C553.934109,2972.94047 545.558486,2983.71703 531.018625,2988.32934 C523.823723,2998.08313 527.203984,3012.12149 527.847655,3026.75612 C531.938719,3026.36518 533.885528,3028.12244 536.961724,3028.73847 C539.619336,3027.30502 542.817947,3026.40862 547.264412,3026.75612 C552.92319,3023.17052 557.942246,3018.94914 564.69487,3016.45738 C566.463979,3012.02276 571.281641,3009.20719 573.414048,3003.7814 C578.014521,2992.06896 576.762718,2976.63664 573.015209,2964.15416 L564.29998,2964.15416 Z M822.629324,2999.42181 C824.702498,2996.45224 829.058138,2996.32982 829.757094,2992.68498 C830.274401,2990.00763 827.581249,2983.63805 826.590074,2981.59252 C823.873229,2975.98902 819.355684,2973.73025 814.305036,2969.70632 C812.235811,2968.04778 810.087608,2964.50956 808.365886,2963.75927 C806.498055,2962.94579 803.180976,2963.471 800.440438,2962.5746 C797.459016,2961.59922 795.314761,2959.36809 793.308719,2959.00874 C777.438077,2956.16158 763.810412,2963.34069 754.877993,2969.70632 C762.645486,2969.29958 766.037594,2973.11422 770.330051,2976.4392 C778.86758,2983.06546 785.884781,2989.97209 787.76051,3002.58883 C799.066219,3006.38768 812.117344,3001.34888 822.629324,2999.42181 L822.629324,2999.42181 Z M617.392982,2964.55695 C614.466845,2963.25381 608.812016,2958.30978 606.300514,2959.00874 C599.480758,2960.89631 592.262163,2963.40387 583.317897,2964.15416 C583.716737,2971.36091 582.769,2977.09866 583.317897,2982.78114 C583.886539,2988.65315 586.785034,2992.57836 588.467267,2997.43946 C589.209661,2999.57582 589.087245,3002.13866 590.054726,3004.17629 C592.1279,3008.54378 597.861708,3013.80767 600.752305,3017.64205 C601.680297,3018.87806 602.868917,3021.0776 604.318164,3020.81697 C604.389244,3015.37933 604.515609,3011.22903 605.901674,3007.74215 C608.780425,3000.48802 618.356515,2989.04804 623.730972,2984.76348 C625.658037,2983.22736 627.869422,2982.99043 628.485451,2981.19368 C629.812283,2977.33955 627.48243,2973.05104 628.485451,2969.31143 C625.018314,2967.43965 621.239214,2966.26287 617.392982,2964.55695 L617.392982,2964.55695 Z M657.806057,2957.02244 C652.696176,2956.01152 648.056215,2950.58573 642.353999,2951.87702 C640.415088,2952.3114 635.613221,2956.4538 635.22228,2957.81617 C633.832266,2962.64963 637.196732,2969.56021 636.80579,2974.85174 C636.624141,2977.32375 635.396032,2978.85987 635.22228,2981.59252 C642.665962,2986.03503 646.662252,2993.92889 653.446468,2999.02692 C659.819998,2997.15909 664.317798,2993.75909 668.898526,2990.30774 C671.208634,2988.57023 674.111078,2986.78927 675.635355,2985.15443 C678.336404,2982.24803 679.947557,2977.24082 682.372183,2972.87334 C686.364524,2965.68238 690.364763,2960.18156 692.670923,2952.27191 C688.303436,2956.39456 669.20654,2959.28516 657.806057,2957.02244 L657.806057,2957.02244 Z M857.095351,2995.852 C861.225903,2995.39393 869.870052,2993.75119 873.345087,2992.28615 C877.858683,2990.39067 879.513274,2986.76953 878.490508,2980.00901 C877.155778,2971.15162 870.782249,2967.55811 865.024748,2962.96949 C862.375034,2960.86077 860.688852,2957.87935 859.476539,2957.02244 C856.127869,2954.67284 847.527158,2950.89769 843.629591,2950.29351 C832.284392,2948.52045 822.866258,2953.02615 812.322687,2953.45658 C810.15079,2955.64427 806.995617,2956.84474 805.194917,2959.39968 C809.39655,2960.02756 812.670191,2963.05242 816.283437,2964.95184 C819.813756,2966.80387 823.695528,2968.74673 826.195184,2971.68867 C831.328758,2977.73049 833.990318,2985.86128 836.892762,2994.26849 C842.433073,2995.54399 849.975478,2996.64968 857.095351,2995.852 L857.095351,2995.852 Z M926.83298,2967.32908 C922.895923,2960.71466 914.848059,2954.01338 908.209953,2949.10094 C906.188114,2947.60826 903.945137,2945.39292 902.266853,2944.74135 C900.098906,2943.90813 897.002966,2944.14902 894.341405,2943.55668 C891.841749,2942.99989 889.306553,2941.80337 887.205737,2941.57433 C875.722327,2940.29489 864.720683,2947.04751 855.515789,2950.68445 L859.0777,2950.68445 C860.902093,2954.51489 865.700011,2954.71628 868.985498,2957.02244 C872.93835,2959.80247 879.055201,2966.68146 881.665426,2971.68867 C883.963687,2976.09564 885.314212,2980.61714 884.832446,2987.13678 C900.181833,2990.02342 919.219494,2986.20878 930,2979.61017 C929.000928,2975.45197 926.402549,2972.90888 926.83298,2967.32908 L926.83298,2967.32908 Z M541.321313,2941.17944 C539.939197,2940.51997 537.253943,2940.80824 534.979374,2939.98687 C532.309916,2939.02729 529.916881,2936.79616 527.847655,2936.42496 C520.822557,2935.16526 515.732421,2937.25818 512.000707,2939.59593 C505.074331,2943.91208 491.916586,2954.61361 487.434581,2960.99109 C483.209254,2967.00132 481.740263,2974.64639 477.530732,2980.00901 C485.503567,2978.9349 492.18906,2975.06893 501.303129,2976.4392 C503.589543,2976.7867 506.681535,2978.29518 509.623467,2979.21133 C515.846939,2981.16209 520.933126,2982.22039 524.680635,2985.15443 C531.547778,2981.72678 538.41492,2978.29123 545.282063,2974.85174 C549.779863,2969.31932 554.593576,2964.08703 559.15061,2958.61385 C552.927139,2955.02035 547.607967,2944.16876 541.321313,2941.17944 L541.321313,2941.17944 Z M703.368501,2944.34646 C702.258859,2946.10767 699.956649,2947.31604 699.012861,2949.10094 C697.417504,2952.09026 694.025396,2962.85497 694.258382,2965.74162 C694.771739,2972.19807 702.093005,2977.63966 704.95596,2981.59252 C710.954344,2970.42107 726.627541,2968.92443 739.421987,2964.55695 C740.302592,2953.89886 736.60247,2947.83334 734.667507,2939.98687 C727.843803,2933.2145 720.802908,2926.64748 711.290001,2922.55246 C708.837732,2928.72065 707.384536,2937.98083 703.368501,2944.34646 L703.368501,2944.34646 Z M479.114242,2964.55695 C482.03643,2959.96437 491.024134,2952.51279 491.39928,2946.7237 C491.948177,2938.20197 477.03317,2928.04934 475.548382,2918.98661 C469.885655,2921.1664 464.337446,2923.97802 459.306544,2928.10462 C454.670532,2931.89952 453.387138,2935.9195 450.587366,2941.57433 C449.090732,2944.59524 446.677952,2948.18874 446.231726,2950.68445 C445.043106,2957.31071 447.286083,2961.27146 449.003856,2965.34673 C451.614081,2971.54256 453.825466,2973.74999 456.929304,2978.81644 C459.701434,2983.34978 461.225711,2988.53864 465.644533,2990.30774 C474.166266,2985.85733 474.178113,2972.30864 479.114242,2964.55695 L479.114242,2964.55695 Z M600.752305,2934.44261 C600.092838,2932.53529 600.211305,2929.85794 599.563685,2928.49951 C597.194343,2923.5239 590.524646,2920.8189 588.866106,2915.42469 C585.446356,2913.35942 582.547861,2912.73944 577.769689,2911.85489 C576.174332,2911.56267 575.048894,2910.34641 573.808939,2910.27138 C570.290466,2910.06208 565.535987,2912.00494 561.129011,2913.04746 C556.907633,2914.04258 551.967556,2914.24002 548.453032,2915.42469 C538.624212,2918.72993 530.272282,2927.21217 524.281796,2931.66653 C539.524562,2931.34667 544.768705,2941.03333 555.584751,2945.14019 C558.025173,2949.83149 561.981974,2953.00641 564.69487,2957.42128 C580.940658,2958.21501 594.809206,2956.63545 605.901674,2952.27191 C607.153477,2943.51719 602.829428,2940.441 600.752305,2934.44261 L600.752305,2934.44261 Z M633.63877,2911.85489 C620.994382,2907.72433 602.122574,2907.34919 588.467267,2910.67022 C592.459608,2911.95756 596.167628,2915.942 598.769955,2919.38939 C601.3091,2922.74596 603.57577,2927.33064 605.506784,2932.06537 C608.263118,2938.82984 611.651277,2943.79756 611.051044,2952.27191 C613.491466,2954.98481 616.583457,2957.04218 619.770222,2959.00874 C626.285912,2953.77249 634.665485,2950.39618 640.770489,2944.74135 C640.896854,2934.43077 650.705929,2927.17268 645.919859,2917.0082 C641.335182,2916.92923 638.097082,2913.31203 633.63877,2911.85489 L633.63877,2911.85489 Z M695.447001,2898.38913 C691.845602,2900.8335 682.415621,2905.98682 678.403536,2906.70947 C673.4911,2907.59007 668.712927,2906.06579 662.955427,2906.70947 C656.301525,2918.67069 650.571666,2931.56781 647.503369,2947.11859 C651.728695,2948.06633 657.699437,2951.50977 664.542886,2952.27191 C671.587729,2953.04984 681.87857,2953.13672 687.122714,2950.68445 C690.333172,2949.18387 691.166391,2945.48375 694.653272,2945.53903 C694.526907,2942.63659 698.065124,2941.5072 699.798693,2939.19709 C706.476288,2930.34365 706.535521,2910.97033 706.535521,2894.02954 C706.535521,2891.36798 707.554338,2887.3164 704.95596,2887.69155 C702.270706,2890.84277 699.763153,2895.45114 695.447001,2898.38913 L695.447001,2898.38913 Z M811.931746,2917.40704 C809.033251,2926.18546 810.40352,2939.62752 811.931746,2948.7021 C816.923159,2944.32277 828.76592,2946.79083 834.910413,2943.55668 C837.650952,2946.62498 845.276284,2944.81243 848.778961,2947.11859 C854.82868,2941.136 858.659116,2932.20358 857.49419,2920.17917 C856.909752,2914.16105 854.331118,2902.57496 852.34482,2897.99424 C849.272574,2890.89806 842.918788,2885.47621 839.664892,2880.95472 C835.435617,2898.11665 827.632584,2911.71667 811.931746,2917.40704 L811.931746,2917.40704 Z M576.186178,2863.52031 C560.714376,2870.89686 550.190549,2885.338 552.413782,2909.08671 C563.170594,2902.14453 587.30629,2908.58125 598.769955,2902.34988 C602.853121,2897.97844 605.771361,2892.44208 607.884024,2886.10014 C595.377848,2880.51244 583.077014,2874.72335 576.186178,2863.52031 L576.186178,2863.52031 Z M620.958842,2843.70867 C614.826195,2850.793 610.960219,2857.05201 612.638503,2871.04692 C613.155809,2875.35912 614.680086,2882.02092 616.204363,2886.49898 C619.430616,2895.99609 627.454788,2901.11387 635.61717,2905.91179 C640.016248,2908.50227 648.514288,2912.91714 652.257848,2912.24978 C653.679453,2912.001 657.885035,2908.13502 658.200947,2905.91179 C658.595838,2903.1515 656.206751,2898.322 655.428817,2894.81932 C654.575854,2890.98493 653.422775,2886.97285 653.051578,2883.33196 C652.565863,2878.60907 654.05065,2870.53751 653.051578,2865.50266 C652.056454,2860.47966 645.710567,2853.4822 641.959109,2850.84433 C635.842258,2846.54793 628.445962,2844.63271 621.748623,2842.91494 C621.744674,2841.98299 620.670572,2843.06105 620.958842,2843.70867 L620.958842,2843.70867 Z M798.462037,2852.82273 C796.29014,2861.84598 792.282004,2872.90685 787.76051,2878.17864 C792.203026,2892.22884 800.910357,2902.01422 809.155667,2912.24978 C819.292501,2908.32062 829.634678,2899.82653 833.326903,2890.06879 C835.688347,2883.80978 837.04677,2878.22208 836.892762,2870.25714 C835.242121,2866.48594 832.086947,2863.7612 829.757094,2859.9505 C826.791468,2855.1131 824.87625,2848.88568 820.646975,2845.68707 C818.956844,2844.41552 816.263692,2844.28915 814.305036,2842.91494 C808.444864,2838.79228 805.372618,2831.12746 796.479688,2830.63385 C799.125453,2838.01435 800.535211,2844.19833 798.462037,2852.82273 L798.462037,2852.82273 Z M659.389567,2860.74423 C658.418137,2877.17167 660.337304,2890.70456 664.542886,2901.95499 C670.363569,2901.78123 676.22769,2900.54128 681.179615,2898.38913 C685.641875,2896.44627 691.122953,2894.13616 694.653272,2891.6523 C697.713672,2889.50015 699.494627,2885.22743 701.784991,2882.13939 C703.242136,2880.16889 704.541325,2879.87667 704.95596,2878.17864 C705.725996,2874.96028 704.95596,2870.19791 704.95596,2866.68733 C704.95596,2862.6792 705.619376,2858.16165 704.95596,2854.80508 C704.328085,2851.64991 700.896488,2847.16001 698.614022,2842.52399 C694.744097,2834.64988 692.682769,2825.97019 687.122714,2821.91467 C685.104824,2842.08567 672.334072,2851.5038 659.389567,2860.74423 L659.389567,2860.74423 Z M487.434581,2823.89702 C484.547933,2822.72814 481.554664,2820.44568 478.719352,2819.93627 C467.919102,2818.00131 454.224306,2819.93232 449.003856,2823.89702 C446.79247,2825.57925 446.32255,2827.94464 444.644267,2830.63385 C443.262151,2832.84918 440.517663,2835.04082 439.100007,2837.37462 C436.039607,2842.38578 436.110687,2846.31099 433.946688,2852.029 C432.773864,2855.13284 430.712536,2857.32843 430.380829,2859.16467 C429.176413,2865.86991 431.296974,2873.15958 430.380829,2878.97237 C435.676308,2876.57933 444.178296,2869.05273 450.587366,2867.08222 C457.659851,2864.91428 465.723511,2865.7396 475.548382,2865.50266 C480.133059,2860.17559 483.556758,2853.69544 488.22831,2848.46709 C490.139579,2841.65524 492.295681,2835.09611 494.965139,2829.05034 C493.77257,2826.52699 490.759557,2825.24754 487.434581,2823.89702 L487.434581,2823.89702 Z M743.382736,2817.95787 C747.596216,2825.32257 746.810384,2835.07636 749.724675,2844.50634 C749.033617,2846.71773 747.94372,2848.53422 747.746274,2851.23922 C754.656855,2854.50892 758.799254,2862.12635 765.575572,2865.89755 C771.265941,2869.06457 778.140982,2869.40023 784.593489,2872.63438 C790.046925,2864.70498 796.337527,2849.08312 793.308719,2833.80877 C792.570274,2830.0968 788.380487,2822.59783 784.593489,2819.93627 C782.085936,2818.17901 777.825069,2816.55996 774.290801,2814.7869 C770.957927,2813.10862 767.005075,2810.64845 763.988113,2809.63753 C755.391351,2806.74693 742.897021,2806.49815 734.272617,2806.07167 C735.492828,2811.13416 740.764614,2813.36924 743.382736,2817.95787 L743.382736,2817.95787 Z M586.883757,2806.46261 C586.860064,2806.22173 586.824523,2806.00059 586.488867,2806.07167 C583.657503,2808.03427 583.566678,2810.54973 581.734387,2813.19944 C580.474687,2815.02383 578.622652,2815.95577 577.769689,2817.55903 C572.142502,2828.18553 574.650055,2845.09473 577.769689,2856.78743 C585.229167,2868.34192 595.930694,2876.66621 610.656154,2880.95472 C604.057537,2869.20673 609.108184,2844.04827 618.182763,2837.37462 C611.753949,2823.0638 601.700041,2812.38202 586.883757,2806.46261 L586.883757,2806.46261 Z M741.400387,2839.34908 C741.147657,2837.03502 741.779482,2834.50377 741.400387,2832.61225 C741.021292,2830.67334 738.782264,2828.21712 737.838476,2825.48448 C737.025002,2823.13093 737.052645,2820.54835 736.254966,2818.7516 C734.213383,2814.16297 729.324641,2811.35925 729.123247,2807.65518 C719.799887,2800.18386 697.417504,2802.50976 685.539204,2806.07167 C686.265802,2808.25146 687.643969,2809.77969 687.122714,2813.19944 C691.70739,2818.94509 697.93481,2824.20108 701.390101,2831.42758 C704.154333,2837.22062 704.821697,2844.07986 708.12298,2850.04665 C720.230317,2851.76838 728.791539,2850.91146 741.400387,2850.04665 C744.227802,2846.63875 741.909796,2843.93375 741.400387,2839.34908 L741.400387,2839.34908 Z M473.569982,2789.42704 C471.516552,2791.13692 468.349532,2792.51509 466.833153,2794.18152 C460.522806,2801.14344 456.751604,2811.05124 451.381095,2818.7516 C455.878896,2818.64103 456.293531,2815.81361 459.306544,2815.18179 C468.914225,2813.17575 477.870337,2816.07819 483.868721,2817.95787 C487.166055,2818.98853 490.972798,2819.4624 492.98279,2820.33511 C495.103351,2821.25125 496.631576,2823.68378 498.530999,2823.89702 C500.813465,2824.16554 503.60139,2821.83174 505.662718,2822.31746 C509.599774,2819.80201 513.43021,2815.3121 517.943806,2813.19944 C520.427666,2812.03846 524.266,2812.36227 524.281796,2808.44496 C522.03487,2803.39431 514.918947,2800.83937 512.000707,2795.37409 C511.337291,2794.13019 511.52289,2792.32159 510.812087,2791.01055 C509.836708,2789.2138 507.759585,2788.1476 506.851337,2786.26002 C505.532404,2783.53133 505.579791,2780.34851 505.662718,2776.74712 C487.205544,2773.44188 481.752109,2782.60729 473.569982,2789.42704 L473.569982,2789.42704 Z M643.937509,2787.44469 C644.016487,2790.20103 642.559342,2794.15783 641.959109,2797.74738 C640.778387,2804.76853 640.146562,2808.56738 637.99441,2813.19944 C636.4109,2816.61919 635.901491,2819.40317 633.63877,2820.73395 C640.395343,2833.65081 645.355165,2848.37232 658.200947,2855.19997 C664.692944,2852.52657 666.959614,2849.10287 670.880875,2843.70867 C674.687618,2838.47242 681.250695,2829.74534 682.372183,2823.50213 C683.280431,2818.42779 681.570556,2815.39898 680.389834,2812.40966 C677.55847,2805.25425 675.639303,2800.14831 670.482036,2794.18152 C667.295271,2790.4893 662.801419,2785.4426 659.788406,2783.48789 C653.466212,2779.38498 645.070844,2778.87162 640.37165,2773.1852 C639.953066,2778.16082 643.787451,2782.14132 643.937509,2787.44469 L643.937509,2787.44469 Z M578.168528,2789.82193 C577.027295,2787.84353 576.221719,2784.97663 574.997559,2783.48789 C573.899764,2782.14527 571.017064,2780.75525 568.659569,2778.72946 C564.402652,2775.08463 560.852588,2771.83468 555.584751,2770.01424 C552.713898,2769.01911 547.88439,2776.74317 546.470682,2779.52714 C545.882296,2780.68022 545.878347,2782.19265 545.282063,2783.48789 C544.097392,2786.04678 542.024218,2787.64609 541.716203,2789.03215 C540.401218,2794.90417 541.072532,2807.41035 541.716203,2812.80455 C543.003546,2823.55346 550.498564,2829.55185 553.602401,2836.18206 C559.869311,2839.82294 565.322746,2844.27336 571.431699,2848.06825 C566.81938,2829.65847 573.003363,2810.98016 583.317897,2802.50186 C582.717664,2796.5864 580.439147,2793.77873 578.168528,2789.82193 L578.168528,2789.82193 Z M586.883757,2764.07114 C588.115815,2766.39704 589.268894,2770.40518 590.449616,2773.97499 C592.787367,2781.03167 594.528833,2787.71322 593.620586,2797.74738 C595.741147,2800.57875 598.734415,2802.97178 601.940925,2805.27794 C604.859164,2807.38271 607.844535,2810.6366 611.051044,2812.01477 C617.550939,2814.80269 625.373716,2813.63777 630.467801,2818.7516 C637.469206,2811.75019 636.418798,2796.70092 639.18303,2785.46629 C637.662702,2778.80054 634.878725,2773.3945 632.051311,2768.03189 C627.348167,2766.57079 624.038986,2762.53896 619.770222,2760.90017 C617.649661,2760.09064 614.680086,2760.23675 612.239664,2759.31666 C607.603652,2757.56729 603.954865,2754.69644 599.164846,2754.16729 C593.513965,2753.53941 585.241013,2754.61746 578.168528,2754.16729 C580.2496,2758.13988 584.71186,2759.97217 586.883757,2764.07114 L586.883757,2764.07114 Z M557.168261,2763.27741 C565.010783,2768.07137 573.323224,2774.42121 578.563418,2781.50554 C582.08584,2786.26792 584.155065,2792.38872 588.866106,2796.16387 C591.010361,2785.4505 585.738575,2778.18846 583.317897,2771.2068 C582.709766,2769.44559 582.950649,2766.98148 582.129278,2765.2637 C580.423351,2761.6781 575.226595,2760.18542 574.997559,2755.75475 C567.427511,2754.47135 563.97617,2749.07715 553.602401,2750.59748 C554.660708,2754.95312 557.5671,2757.46857 557.168261,2763.27741 L557.168261,2763.27741 Z M523.886906,2730 C538.896686,2735.72196 544.622596,2750.73174 552.018891,2764.07114 C548.393798,2770.34199 540.902729,2775.36895 538.150344,2784.28162 C536.053476,2791.06979 536.847206,2798.96364 536.566833,2808.44496 C526.978897,2803.94321 518.484806,2795.37409 513.584217,2785.46629 C512.474576,2783.21937 510.7647,2780.89741 510.417197,2779.1283 C509.165395,2772.8298 509.627416,2762.86672 510.417197,2755.75475 C510.618591,2753.93035 511.744028,2751.97959 512.000707,2749.81165 C512.221846,2747.94776 511.649255,2745.77982 512.000707,2744.25949 C513.615809,2737.28968 522.334987,2737.52661 523.886906,2730 Z M430,2914.99217 L430,2897.9566 C431.757262,2896.5429 431.698028,2893.31269 431.58351,2890.03115 C441.167498,2879.00977 454.293652,2871.53449 475.562444,2872.20186 C478.125282,2883.16796 478.010764,2902.8177 475.562444,2913.80355 C472.569176,2913.39287 470.985665,2915.7938 468.829564,2917.36941 C466.610281,2918.98846 463.80656,2919.45443 461.697845,2920.93527 C452.706193,2927.25352 446.506415,2938.61056 442.281089,2949.06726 C434.343793,2941.55249 433.372363,2927.07187 430,2914.99217 Z" id="Combined-Shape"></path>
        </g>
    </g>
</svg>