<svg xmlns="http://www.w3.org/2000/svg" width="185" height="26" viewBox="0 0 185 26">
    <g fill="#1A171C" fill-rule="evenodd">
        <path d="M45.068 25.96h3.536v-2.813h-3.536zM138.855 25.96v-2.812h-11.987v2.811zM161.768 25.96v-2.812H147.67v2.811zM168.398 25.96h16.24v-2.812h-16.24zM71.514 25.96v-2.812h-5.532v2.811zM94.053 25.96v-2.812h-7.465l-.005 2.811zM107 25.96h9.874v-2.813H107zM45.068 10.727v6.7h3.535v-6.7L55.331.82h-2.799L47.645 8.31 42.379.82h-4.167zM28.712 15.716c-4.217 0-6.69-3.682-6.69-6.595 0-2.882 2.473-6.598 6.69-6.598 4.218 0 6.691 3.683 6.691 6.598 0 2.913-2.473 6.595-6.69 6.595m0 2.218c6.573 0 10.194-4.167 10.194-8.813 0-4.682-3.558-8.817-10.195-8.817-6.604 0-10.194 4.167-10.194 8.817 0 4.646 3.622 8.813 10.194 8.813M94.307 15.716c-4.217 0-6.69-3.682-6.69-6.595 0-2.882 2.473-6.598 6.69-6.598 4.219 0 6.69 3.683 6.69 6.598 0 2.913-2.471 6.595-6.69 6.595m0 2.218c6.573 0 10.194-4.167 10.194-8.813 0-4.682-3.556-8.817-10.194-8.817-6.605 0-10.194 4.167-10.194 8.817 0 4.646 3.621 8.813 10.194 8.813M170.88 17.427l-.007-12.324h.067l10.245 12.324h3.453V.82h-2.488l-.004 12.326h-.065L171.85.82h-3.453v16.606zM155.575 15.716c-4.218 0-6.69-3.682-6.69-6.595 0-2.882 2.472-6.598 6.69-6.598s6.69 3.683 6.69 6.598c0 2.913-2.472 6.595-6.69 6.595m0 2.218c6.573 0 10.195-4.167 10.195-8.813 0-4.682-3.555-8.817-10.195-8.817-6.604 0-10.194 4.167-10.194 8.817 0 4.646 3.621 8.813 10.194 8.813M107 17.427h10.832c3.495 0 5.9-1.86 5.9-5.192 0-2.117-1.06-3.174-1.958-3.879.74-.738 1.123-1.923 1.123-2.95 0-3.077-1.923-4.585-5.065-4.585H107v16.606zm10.921-7.728c1.441.04 2.494 1.048 2.494 2.619 0 1.756-1.014 2.936-2.563 2.936h-7.485V9.7h7.554zm-.803-6.603c1.45 0 2.482.978 2.482 2.516 0 1.474-1.1 2.248-2.482 2.248h-6.75V3.096h6.75zM125.998 15.32c2.044 1.465 5.167 2.615 9.659 2.615 5.48 0 7.82-2.468 7.82-5.45 0-3.493-2.434-5.129-6.253-5.226l-4.326-.159c-1.123 0-2.944-.448-2.944-1.73 0-1.476 1.58-2.356 3.938-2.49 4.129-.237 7.236 1.799 7.236 1.799l1.292-2.196c-.994-.512-3.656-2.179-8.015-2.179-5.963 0-7.79 2.63-7.79 5.097 0 2.565 1.986 4.937 6.058 5.032l4.97.162c1.026.032 2.501.49 2.501 1.836 0 1.86-1.92 2.96-4.487 2.928-3.933-.045-6.95-1.403-8.291-2.317l-1.368 2.279zM10.965 3.095c1.332 0 2.66.873 2.66 2.632 0 1.69-1.432 2.662-2.66 2.662H3.719V3.095h7.246zM.386 17.427H3.72v-6.908h5.237l4.284 6.908h4.2l-4.2-6.796c1.571-.577 3.72-1.73 3.72-4.904 0-3.752-2.917-4.906-5.995-4.906H.386v16.606zM76.56 3.095c1.333 0 2.66.873 2.66 2.632 0 1.69-1.431 2.662-2.66 2.662h-7.246V3.095h7.246zM65.98 17.427h3.333v-6.908h5.237l4.284 6.908h4.2l-4.2-6.796c1.571-.577 3.72-1.73 3.72-4.904C82.555 1.975 79.64.82 76.56.82H65.98v16.606z"/>
    </g>
</svg>
